<svg width="324" height="100" viewBox="0 0 324 100" fill="none" xmlns="http://www.w3.org/2000/svg">
<path d="M0 20C0 8.9543 8.95431 0 20 0H304C315.046 0 324 8.95431 324 20V80C324 91.0457 315.046 100 304 100H20C8.95431 100 0 91.0457 0 80V20Z" fill="#A0D5DD"/>
<path d="M11 74C11 68.4772 15.4772 64 21 64H81C86.5228 64 91 68.4772 91 74V74C91 79.5228 86.5228 84 81 84H21C15.4772 84 11 79.5228 11 74V74Z" fill="#BBE1E6"/>
<path d="M122 74C122 68.4772 126.477 64 132 64H192C197.523 64 202 68.4772 202 74V74C202 79.5228 197.523 84 192 84H132C126.477 84 122 79.5228 122 74V74Z" fill="#BBE1E6"/>
<path d="M233 74C233 68.4772 237.477 64 243 64H303C308.523 64 313 68.4772 313 74V74C313 79.5228 308.523 84 303 84H273H243C237.477 84 233 79.5228 233 74V74Z" fill="#BBE1E6"/>
<path d="M86.3501 42C85.9181 42 85.5821 41.888 85.3421 41.664C85.1181 41.424 85.0061 41.088 85.0061 40.656V26.424C85.0061 25.992 85.1181 25.664 85.3421 25.44C85.5821 25.2 85.9181 25.08 86.3501 25.08H90.9821C93.7661 25.08 95.9101 25.808 97.4141 27.264C98.9341 28.704 99.6941 30.792 99.6941 33.528C99.6941 34.888 99.5021 36.096 99.1181 37.152C98.7341 38.208 98.1661 39.096 97.4141 39.816C96.6781 40.52 95.7741 41.064 94.7021 41.448C93.6301 41.816 92.3901 42 90.9821 42H86.3501ZM87.5021 39.912H90.8381C91.8941 39.912 92.8061 39.784 93.5741 39.528C94.3581 39.256 95.0141 38.856 95.5421 38.328C96.0701 37.8 96.4621 37.136 96.7181 36.336C96.9741 35.536 97.1021 34.6 97.1021 33.528C97.1021 31.4 96.5741 29.808 95.5181 28.752C94.4781 27.696 92.9181 27.168 90.8381 27.168H87.5021V39.912ZM106.742 42.216C105.926 42.216 105.19 42.056 104.534 41.736C103.894 41.416 103.39 40.984 103.022 40.44C102.654 39.896 102.47 39.28 102.47 38.592C102.47 37.728 102.686 37.048 103.118 36.552C103.566 36.04 104.294 35.68 105.302 35.472C106.326 35.248 107.702 35.136 109.43 35.136H110.558V36.624H109.454C108.302 36.624 107.39 36.68 106.718 36.792C106.046 36.904 105.566 37.096 105.278 37.368C105.006 37.624 104.87 37.984 104.87 38.448C104.87 39.056 105.078 39.552 105.494 39.936C105.91 40.304 106.486 40.488 107.222 40.488C107.814 40.488 108.334 40.352 108.782 40.08C109.23 39.792 109.582 39.408 109.838 38.928C110.11 38.448 110.246 37.896 110.246 37.272V34.512C110.246 33.6 110.054 32.944 109.67 32.544C109.286 32.144 108.654 31.944 107.774 31.944C107.262 31.944 106.726 32.008 106.166 32.136C105.622 32.264 105.054 32.48 104.462 32.784C104.19 32.912 103.958 32.952 103.766 32.904C103.574 32.856 103.422 32.752 103.31 32.592C103.198 32.416 103.134 32.232 103.118 32.04C103.118 31.832 103.166 31.632 103.262 31.44C103.374 31.248 103.558 31.104 103.814 31.008C104.518 30.672 105.214 30.432 105.902 30.288C106.59 30.144 107.238 30.072 107.846 30.072C108.918 30.072 109.798 30.24 110.486 30.576C111.19 30.912 111.71 31.424 112.046 32.112C112.382 32.8 112.55 33.688 112.55 34.776V40.944C112.55 41.328 112.454 41.632 112.262 41.856C112.07 42.064 111.79 42.168 111.422 42.168C111.07 42.168 110.79 42.064 110.582 41.856C110.374 41.632 110.27 41.328 110.27 40.944V39.384H110.486C110.358 39.976 110.118 40.488 109.766 40.92C109.43 41.336 109.006 41.656 108.494 41.88C107.982 42.104 107.398 42.216 106.742 42.216ZM117.322 42.144C116.938 42.144 116.642 42.032 116.434 41.808C116.226 41.568 116.122 41.24 116.122 40.824V31.464C116.122 31.048 116.226 30.728 116.434 30.504C116.642 30.28 116.938 30.168 117.322 30.168C117.706 30.168 118.002 30.28 118.21 30.504C118.434 30.728 118.546 31.048 118.546 31.464V40.824C118.546 41.24 118.442 41.568 118.234 41.808C118.026 42.032 117.722 42.144 117.322 42.144ZM117.322 27.672C116.842 27.672 116.466 27.552 116.194 27.312C115.938 27.072 115.81 26.736 115.81 26.304C115.81 25.856 115.938 25.52 116.194 25.296C116.466 25.056 116.842 24.936 117.322 24.936C117.802 24.936 118.17 25.056 118.426 25.296C118.698 25.52 118.834 25.856 118.834 26.304C118.834 26.736 118.698 27.072 118.426 27.312C118.17 27.552 117.802 27.672 117.322 27.672ZM125.959 42.216C124.711 42.216 123.767 41.856 123.127 41.136C122.503 40.4 122.191 39.344 122.191 37.968V26.136C122.191 25.736 122.295 25.432 122.503 25.224C122.711 25.016 123.007 24.912 123.391 24.912C123.775 24.912 124.071 25.016 124.279 25.224C124.503 25.432 124.615 25.736 124.615 26.136V37.824C124.615 38.624 124.775 39.224 125.095 39.624C125.431 40.008 125.911 40.2 126.535 40.2C126.679 40.2 126.807 40.2 126.919 40.2C127.031 40.184 127.143 40.168 127.255 40.152C127.447 40.136 127.583 40.192 127.663 40.32C127.743 40.432 127.783 40.672 127.783 41.04C127.783 41.376 127.711 41.64 127.567 41.832C127.423 42.008 127.191 42.12 126.871 42.168C126.727 42.184 126.575 42.192 126.415 42.192C126.255 42.208 126.103 42.216 125.959 42.216ZM132.238 46.488C131.95 46.488 131.71 46.408 131.518 46.248C131.342 46.104 131.238 45.904 131.206 45.648C131.19 45.408 131.238 45.144 131.35 44.856L132.982 41.184V42.216L128.494 31.776C128.382 31.488 128.342 31.216 128.374 30.96C128.406 30.704 128.526 30.504 128.734 30.36C128.942 30.2 129.222 30.12 129.574 30.12C129.878 30.12 130.118 30.192 130.294 30.336C130.47 30.48 130.63 30.728 130.774 31.08L134.398 40.032H133.726L137.398 31.08C137.542 30.712 137.71 30.464 137.902 30.336C138.094 30.192 138.358 30.12 138.694 30.12C138.982 30.12 139.206 30.2 139.366 30.36C139.542 30.504 139.646 30.704 139.678 30.96C139.726 31.2 139.686 31.464 139.558 31.752L133.558 45.552C133.398 45.92 133.214 46.168 133.006 46.296C132.814 46.424 132.558 46.488 132.238 46.488ZM153.205 42.216C152.181 42.216 151.277 41.976 150.493 41.496C149.725 41 149.125 40.296 148.693 39.384C148.261 38.456 148.045 37.376 148.045 36.144C148.045 34.88 148.261 33.8 148.693 32.904C149.125 32.008 149.725 31.312 150.493 30.816C151.277 30.32 152.181 30.072 153.205 30.072C154.229 30.072 155.109 30.328 155.845 30.84C156.597 31.336 157.101 32.008 157.357 32.856H157.093V26.136C157.093 25.736 157.197 25.432 157.405 25.224C157.613 25.016 157.909 24.912 158.293 24.912C158.677 24.912 158.973 25.016 159.181 25.224C159.405 25.432 159.517 25.736 159.517 26.136V40.944C159.517 41.328 159.413 41.632 159.205 41.856C158.997 42.064 158.701 42.168 158.317 42.168C157.933 42.168 157.637 42.064 157.429 41.856C157.221 41.632 157.117 41.328 157.117 40.944V38.832L157.381 39.36C157.125 40.224 156.621 40.92 155.869 41.448C155.133 41.96 154.245 42.216 153.205 42.216ZM153.829 40.344C154.485 40.344 155.061 40.184 155.557 39.864C156.053 39.544 156.437 39.072 156.709 38.448C156.997 37.824 157.141 37.056 157.141 36.144C157.141 34.768 156.837 33.728 156.229 33.024C155.621 32.32 154.821 31.968 153.829 31.968C153.157 31.968 152.573 32.128 152.077 32.448C151.581 32.752 151.189 33.216 150.901 33.84C150.629 34.464 150.493 35.232 150.493 36.144C150.493 37.504 150.797 38.544 151.405 39.264C152.013 39.984 152.821 40.344 153.829 40.344ZM164.353 42.144C163.969 42.144 163.673 42.032 163.465 41.808C163.257 41.568 163.153 41.24 163.153 40.824V31.464C163.153 31.048 163.257 30.728 163.465 30.504C163.673 30.28 163.969 30.168 164.353 30.168C164.737 30.168 165.033 30.28 165.241 30.504C165.465 30.728 165.577 31.048 165.577 31.464V40.824C165.577 41.24 165.473 41.568 165.265 41.808C165.057 42.032 164.753 42.144 164.353 42.144ZM164.353 27.672C163.873 27.672 163.497 27.552 163.225 27.312C162.969 27.072 162.841 26.736 162.841 26.304C162.841 25.856 162.969 25.52 163.225 25.296C163.497 25.056 163.873 24.936 164.353 24.936C164.833 24.936 165.201 25.056 165.457 25.296C165.729 25.52 165.865 25.856 165.865 26.304C165.865 26.736 165.729 27.072 165.457 27.312C165.201 27.552 164.833 27.672 164.353 27.672ZM173.326 42.216C172.622 42.216 171.894 42.136 171.142 41.976C170.406 41.816 169.726 41.544 169.102 41.16C168.894 41.016 168.75 40.856 168.67 40.68C168.59 40.504 168.558 40.328 168.574 40.152C168.606 39.96 168.678 39.8 168.79 39.672C168.918 39.528 169.07 39.44 169.246 39.408C169.438 39.376 169.638 39.416 169.846 39.528C170.47 39.88 171.07 40.128 171.646 40.272C172.222 40.4 172.79 40.464 173.35 40.464C174.198 40.464 174.838 40.312 175.27 40.008C175.702 39.704 175.918 39.296 175.918 38.784C175.918 38.368 175.774 38.048 175.486 37.824C175.198 37.584 174.766 37.4 174.19 37.272L171.91 36.816C170.918 36.608 170.166 36.24 169.654 35.712C169.142 35.184 168.886 34.512 168.886 33.696C168.886 32.96 169.086 32.32 169.486 31.776C169.886 31.232 170.446 30.816 171.166 30.528C171.886 30.224 172.718 30.072 173.662 30.072C174.366 30.072 175.03 30.16 175.654 30.336C176.278 30.512 176.854 30.776 177.382 31.128C177.59 31.24 177.726 31.392 177.79 31.584C177.854 31.76 177.862 31.936 177.814 32.112C177.782 32.288 177.702 32.448 177.574 32.592C177.446 32.72 177.286 32.8 177.094 32.832C176.918 32.848 176.718 32.8 176.494 32.688C176.014 32.384 175.534 32.168 175.054 32.04C174.59 31.912 174.126 31.848 173.662 31.848C172.814 31.848 172.174 32.008 171.742 32.328C171.326 32.632 171.118 33.048 171.118 33.576C171.118 33.976 171.246 34.304 171.502 34.56C171.758 34.816 172.158 35 172.702 35.112L174.982 35.568C176.022 35.776 176.806 36.128 177.334 36.624C177.878 37.12 178.15 37.792 178.15 38.64C178.15 39.744 177.71 40.616 176.83 41.256C175.95 41.896 174.782 42.216 173.326 42.216ZM186.24 42.216C185.04 42.216 184 41.968 183.12 41.472C182.256 40.96 181.584 40.248 181.104 39.336C180.624 38.408 180.384 37.32 180.384 36.072C180.384 35.144 180.52 34.312 180.792 33.576C181.064 32.824 181.448 32.192 181.944 31.68C182.456 31.168 183.072 30.776 183.792 30.504C184.528 30.216 185.344 30.072 186.24 30.072C186.8 30.072 187.384 30.16 187.992 30.336C188.616 30.496 189.192 30.768 189.72 31.152C189.928 31.28 190.056 31.44 190.104 31.632C190.168 31.808 190.176 31.992 190.128 32.184C190.096 32.376 190.008 32.544 189.864 32.688C189.736 32.816 189.576 32.896 189.384 32.928C189.192 32.944 188.984 32.888 188.76 32.76C188.376 32.488 187.984 32.296 187.584 32.184C187.184 32.056 186.8 31.992 186.432 31.992C185.856 31.992 185.344 32.088 184.896 32.28C184.464 32.456 184.096 32.72 183.792 33.072C183.488 33.408 183.256 33.832 183.096 34.344C182.952 34.856 182.88 35.44 182.88 36.096C182.88 37.408 183.184 38.44 183.792 39.192C184.416 39.928 185.296 40.296 186.432 40.296C186.8 40.296 187.184 40.24 187.584 40.128C187.984 40.016 188.376 39.824 188.76 39.552C188.984 39.424 189.192 39.376 189.384 39.408C189.576 39.44 189.728 39.528 189.84 39.672C189.968 39.8 190.048 39.96 190.08 40.152C190.128 40.328 190.12 40.512 190.056 40.704C189.992 40.896 189.856 41.056 189.648 41.184C189.136 41.552 188.576 41.816 187.968 41.976C187.376 42.136 186.8 42.216 186.24 42.216ZM197.369 42.216C196.185 42.216 195.161 41.968 194.297 41.472C193.449 40.976 192.785 40.272 192.305 39.36C191.825 38.448 191.585 37.376 191.585 36.144C191.585 35.2 191.721 34.36 191.993 33.624C192.265 32.888 192.649 32.256 193.145 31.728C193.657 31.184 194.265 30.776 194.969 30.504C195.689 30.216 196.489 30.072 197.369 30.072C198.537 30.072 199.545 30.32 200.393 30.816C201.257 31.312 201.929 32.016 202.409 32.928C202.889 33.824 203.129 34.896 203.129 36.144C203.129 37.072 202.993 37.912 202.721 38.664C202.449 39.416 202.057 40.056 201.545 40.584C201.049 41.112 200.441 41.52 199.721 41.808C199.017 42.08 198.233 42.216 197.369 42.216ZM197.369 40.344C198.025 40.344 198.601 40.184 199.097 39.864C199.593 39.544 199.977 39.072 200.249 38.448C200.537 37.824 200.681 37.056 200.681 36.144C200.681 34.768 200.377 33.728 199.769 33.024C199.161 32.32 198.361 31.968 197.369 31.968C196.697 31.968 196.113 32.128 195.617 32.448C195.121 32.752 194.729 33.216 194.441 33.84C194.169 34.464 194.033 35.232 194.033 36.144C194.033 37.504 194.337 38.544 194.945 39.264C195.553 39.984 196.361 40.344 197.369 40.344ZM210.261 42.216C209.317 42.216 208.525 42.04 207.885 41.688C207.261 41.336 206.789 40.816 206.469 40.128C206.165 39.424 206.013 38.544 206.013 37.488V31.344C206.013 30.928 206.117 30.624 206.325 30.432C206.533 30.224 206.829 30.12 207.213 30.12C207.597 30.12 207.893 30.224 208.101 30.432C208.325 30.624 208.437 30.928 208.437 31.344V37.512C208.437 38.456 208.629 39.152 209.013 39.6C209.397 40.048 210.005 40.272 210.837 40.272C211.749 40.272 212.485 39.968 213.045 39.36C213.621 38.736 213.909 37.92 213.909 36.912V31.344C213.909 30.928 214.013 30.624 214.221 30.432C214.429 30.224 214.733 30.12 215.133 30.12C215.517 30.12 215.813 30.224 216.021 30.432C216.229 30.624 216.333 30.928 216.333 31.344V40.944C216.333 41.76 215.941 42.168 215.157 42.168C214.789 42.168 214.501 42.064 214.293 41.856C214.085 41.632 213.981 41.328 213.981 40.944V38.904L214.293 39.432C213.973 40.328 213.461 41.016 212.757 41.496C212.053 41.976 211.221 42.216 210.261 42.216ZM221.181 42.168C220.797 42.168 220.501 42.064 220.293 41.856C220.085 41.632 219.981 41.328 219.981 40.944V31.344C219.981 30.944 220.085 30.64 220.293 30.432C220.501 30.224 220.789 30.12 221.157 30.12C221.541 30.12 221.829 30.224 222.021 30.432C222.229 30.64 222.333 30.944 222.333 31.344V33.216L222.069 32.784C222.421 31.888 222.973 31.216 223.725 30.768C224.477 30.304 225.341 30.072 226.317 30.072C227.245 30.072 228.013 30.248 228.621 30.6C229.245 30.936 229.709 31.456 230.013 32.16C230.317 32.848 230.469 33.72 230.469 34.776V40.944C230.469 41.328 230.365 41.632 230.157 41.856C229.949 42.064 229.653 42.168 229.269 42.168C228.869 42.168 228.565 42.064 228.357 41.856C228.149 41.632 228.045 41.328 228.045 40.944V34.92C228.045 33.912 227.845 33.176 227.445 32.712C227.061 32.248 226.453 32.016 225.621 32.016C224.645 32.016 223.861 32.32 223.269 32.928C222.693 33.536 222.405 34.352 222.405 35.376V40.944C222.405 41.76 221.997 42.168 221.181 42.168ZM239.034 42.216C238.074 42.216 237.266 42.048 236.61 41.712C235.954 41.376 235.466 40.88 235.146 40.224C234.826 39.568 234.666 38.768 234.666 37.824V32.16H233.226C232.906 32.16 232.658 32.08 232.482 31.92C232.306 31.744 232.218 31.512 232.218 31.224C232.218 30.92 232.306 30.688 232.482 30.528C232.658 30.368 232.906 30.288 233.226 30.288H234.666V27.816C234.666 27.416 234.77 27.112 234.978 26.904C235.202 26.696 235.506 26.592 235.89 26.592C236.274 26.592 236.57 26.696 236.778 26.904C236.986 27.112 237.09 27.416 237.09 27.816V30.288H239.898C240.218 30.288 240.466 30.368 240.642 30.528C240.818 30.688 240.906 30.92 240.906 31.224C240.906 31.512 240.818 31.744 240.642 31.92C240.466 32.08 240.218 32.16 239.898 32.16H237.09V37.632C237.09 38.48 237.266 39.12 237.618 39.552C237.986 39.984 238.578 40.2 239.394 40.2C239.682 40.2 239.93 40.176 240.138 40.128C240.362 40.064 240.546 40.024 240.69 40.008C240.866 40.008 241.01 40.072 241.122 40.2C241.234 40.312 241.29 40.536 241.29 40.872C241.29 41.112 241.242 41.336 241.146 41.544C241.066 41.752 240.914 41.888 240.69 41.952C240.498 42.016 240.234 42.072 239.898 42.12C239.578 42.184 239.29 42.216 239.034 42.216ZM247.145 42.216C246.441 42.216 245.713 42.136 244.961 41.976C244.225 41.816 243.545 41.544 242.921 41.16C242.713 41.016 242.569 40.856 242.489 40.68C242.409 40.504 242.377 40.328 242.393 40.152C242.425 39.96 242.497 39.8 242.609 39.672C242.737 39.528 242.889 39.44 243.065 39.408C243.257 39.376 243.457 39.416 243.665 39.528C244.289 39.88 244.889 40.128 245.465 40.272C246.041 40.4 246.609 40.464 247.169 40.464C248.017 40.464 248.657 40.312 249.089 40.008C249.521 39.704 249.737 39.296 249.737 38.784C249.737 38.368 249.593 38.048 249.305 37.824C249.017 37.584 248.585 37.4 248.009 37.272L245.729 36.816C244.737 36.608 243.985 36.24 243.473 35.712C242.961 35.184 242.705 34.512 242.705 33.696C242.705 32.96 242.905 32.32 243.305 31.776C243.705 31.232 244.265 30.816 244.985 30.528C245.705 30.224 246.537 30.072 247.481 30.072C248.185 30.072 248.849 30.16 249.473 30.336C250.097 30.512 250.673 30.776 251.201 31.128C251.409 31.24 251.545 31.392 251.609 31.584C251.673 31.76 251.681 31.936 251.633 32.112C251.601 32.288 251.521 32.448 251.393 32.592C251.265 32.72 251.105 32.8 250.913 32.832C250.737 32.848 250.537 32.8 250.313 32.688C249.833 32.384 249.353 32.168 248.873 32.04C248.409 31.912 247.945 31.848 247.481 31.848C246.633 31.848 245.993 32.008 245.561 32.328C245.145 32.632 244.937 33.048 244.937 33.576C244.937 33.976 245.065 34.304 245.321 34.56C245.577 34.816 245.977 35 246.521 35.112L248.801 35.568C249.841 35.776 250.625 36.128 251.153 36.624C251.697 37.12 251.969 37.792 251.969 38.64C251.969 39.744 251.529 40.616 250.649 41.256C249.769 41.896 248.601 42.216 247.145 42.216Z" fill="white"/>
</svg>
