<svg width="324" height="159" viewBox="0 0 324 159" fill="none" xmlns="http://www.w3.org/2000/svg">
<path d="M0 20C0 8.95431 8.95431 0 20 0H304C315.046 0 324 8.95431 324 20V139C324 150.046 315.046 159 304 159H20C8.95431 159 0 150.046 0 139V20Z" fill="#DDC7A0"/>
<rect x="90" y="80" width="158" height="10" rx="5" fill="#E6D6BB"/>
<rect x="90" y="60" width="195" height="10" rx="5" fill="#E6D6BB"/>
<rect x="90" y="112" width="128" height="10" rx="5" fill="#E6D6BB"/>
<rect x="90" y="132" width="195" height="10" rx="5" fill="#E6D6BB"/>
<path d="M84.3484 37.168C83.9484 37.168 83.6364 37.056 83.4124 36.832C83.2044 36.608 83.1004 36.288 83.1004 35.872V28.264L83.6524 29.848L77.7244 21.616C77.5484 21.376 77.4684 21.128 77.4844 20.872C77.5004 20.6 77.6044 20.376 77.7964 20.2C78.0044 20.008 78.2764 19.912 78.6124 19.912C78.8684 19.912 79.1004 19.976 79.3084 20.104C79.5324 20.232 79.7404 20.432 79.9324 20.704L84.6844 27.304H84.1084L88.8604 20.704C89.0684 20.416 89.2684 20.216 89.4604 20.104C89.6524 19.976 89.8924 19.912 90.1804 19.912C90.5164 19.912 90.7724 20 90.9484 20.176C91.1404 20.336 91.2364 20.552 91.2364 20.824C91.2524 21.08 91.1564 21.352 90.9484 21.64L85.0684 29.848L85.5724 28.264V35.872C85.5724 36.736 85.1644 37.168 84.3484 37.168ZM96.7106 37.216C95.5266 37.216 94.5026 36.968 93.6386 36.472C92.7906 35.976 92.1266 35.272 91.6466 34.36C91.1666 33.448 90.9266 32.376 90.9266 31.144C90.9266 30.2 91.0626 29.36 91.3346 28.624C91.6066 27.888 91.9906 27.256 92.4866 26.728C92.9986 26.184 93.6066 25.776 94.3106 25.504C95.0306 25.216 95.8306 25.072 96.7106 25.072C97.8786 25.072 98.8866 25.32 99.7346 25.816C100.599 26.312 101.271 27.016 101.751 27.928C102.231 28.824 102.471 29.896 102.471 31.144C102.471 32.072 102.335 32.912 102.063 33.664C101.791 34.416 101.399 35.056 100.887 35.584C100.391 36.112 99.7826 36.52 99.0626 36.808C98.3586 37.08 97.5746 37.216 96.7106 37.216ZM96.7106 35.344C97.3666 35.344 97.9426 35.184 98.4386 34.864C98.9346 34.544 99.3186 34.072 99.5906 33.448C99.8786 32.824 100.023 32.056 100.023 31.144C100.023 29.768 99.7186 28.728 99.1106 28.024C98.5026 27.32 97.7026 26.968 96.7106 26.968C96.0386 26.968 95.4546 27.128 94.9586 27.448C94.4626 27.752 94.0706 28.216 93.7826 28.84C93.5106 29.464 93.3746 30.232 93.3746 31.144C93.3746 32.504 93.6786 33.544 94.2866 34.264C94.8946 34.984 95.7026 35.344 96.7106 35.344ZM109.602 37.216C108.658 37.216 107.866 37.04 107.226 36.688C106.602 36.336 106.13 35.816 105.81 35.128C105.506 34.424 105.354 33.544 105.354 32.488V26.344C105.354 25.928 105.458 25.624 105.666 25.432C105.874 25.224 106.17 25.12 106.554 25.12C106.938 25.12 107.234 25.224 107.442 25.432C107.666 25.624 107.778 25.928 107.778 26.344V32.512C107.778 33.456 107.97 34.152 108.354 34.6C108.738 35.048 109.346 35.272 110.178 35.272C111.09 35.272 111.826 34.968 112.386 34.36C112.962 33.736 113.25 32.92 113.25 31.912V26.344C113.25 25.928 113.354 25.624 113.562 25.432C113.77 25.224 114.074 25.12 114.474 25.12C114.858 25.12 115.154 25.224 115.362 25.432C115.57 25.624 115.674 25.928 115.674 26.344V35.944C115.674 36.76 115.282 37.168 114.498 37.168C114.13 37.168 113.842 37.064 113.634 36.856C113.426 36.632 113.322 36.328 113.322 35.944V33.904L113.634 34.432C113.314 35.328 112.802 36.016 112.098 36.496C111.394 36.976 110.562 37.216 109.602 37.216ZM120.547 37.168C120.147 37.168 119.843 37.064 119.635 36.856C119.427 36.632 119.323 36.328 119.323 35.944V26.344C119.323 25.944 119.427 25.64 119.635 25.432C119.843 25.224 120.131 25.12 120.499 25.12C120.883 25.12 121.171 25.224 121.363 25.432C121.571 25.64 121.675 25.944 121.675 26.344V28.096H121.435C121.691 27.136 122.163 26.408 122.851 25.912C123.539 25.416 124.419 25.128 125.491 25.048C125.779 25.032 126.003 25.104 126.163 25.264C126.339 25.424 126.435 25.672 126.451 26.008C126.483 26.344 126.411 26.616 126.235 26.824C126.059 27.016 125.787 27.128 125.419 27.16L124.963 27.208C123.923 27.304 123.131 27.632 122.587 28.192C122.043 28.752 121.771 29.52 121.771 30.496V35.944C121.771 36.328 121.667 36.632 121.459 36.856C121.267 37.064 120.963 37.168 120.547 37.168ZM136.27 41.488C135.886 41.488 135.59 41.384 135.382 41.176C135.174 40.968 135.07 40.664 135.07 40.264V26.344C135.07 25.944 135.174 25.64 135.382 25.432C135.59 25.224 135.878 25.12 136.246 25.12C136.63 25.12 136.926 25.224 137.134 25.432C137.342 25.64 137.446 25.944 137.446 26.344V28.432L137.182 27.928C137.438 27.064 137.942 26.376 138.694 25.864C139.446 25.336 140.334 25.072 141.358 25.072C142.398 25.072 143.302 25.32 144.07 25.816C144.854 26.312 145.454 27.008 145.87 27.904C146.302 28.8 146.518 29.88 146.518 31.144C146.518 32.376 146.302 33.456 145.87 34.384C145.454 35.296 144.862 36 144.094 36.496C143.326 36.976 142.414 37.216 141.358 37.216C140.35 37.216 139.47 36.96 138.718 36.448C137.966 35.936 137.462 35.256 137.206 34.408H137.494V40.264C137.494 40.664 137.382 40.968 137.158 41.176C136.95 41.384 136.654 41.488 136.27 41.488ZM140.758 35.344C141.43 35.344 142.014 35.184 142.51 34.864C143.006 34.544 143.39 34.072 143.662 33.448C143.934 32.824 144.07 32.056 144.07 31.144C144.07 29.768 143.766 28.728 143.158 28.024C142.566 27.32 141.766 26.968 140.758 26.968C140.102 26.968 139.518 27.128 139.006 27.448C138.51 27.752 138.126 28.216 137.854 28.84C137.582 29.464 137.446 30.232 137.446 31.144C137.446 32.504 137.75 33.544 138.358 34.264C138.966 34.984 139.766 35.344 140.758 35.344ZM153.658 37.216C152.714 37.216 151.922 37.04 151.282 36.688C150.658 36.336 150.186 35.816 149.866 35.128C149.562 34.424 149.41 33.544 149.41 32.488V26.344C149.41 25.928 149.514 25.624 149.722 25.432C149.93 25.224 150.226 25.12 150.61 25.12C150.994 25.12 151.29 25.224 151.498 25.432C151.722 25.624 151.834 25.928 151.834 26.344V32.512C151.834 33.456 152.026 34.152 152.41 34.6C152.794 35.048 153.402 35.272 154.234 35.272C155.146 35.272 155.882 34.968 156.442 34.36C157.018 33.736 157.306 32.92 157.306 31.912V26.344C157.306 25.928 157.41 25.624 157.618 25.432C157.826 25.224 158.13 25.12 158.53 25.12C158.914 25.12 159.21 25.224 159.418 25.432C159.626 25.624 159.73 25.928 159.73 26.344V35.944C159.73 36.76 159.338 37.168 158.554 37.168C158.186 37.168 157.898 37.064 157.69 36.856C157.482 36.632 157.378 36.328 157.378 35.944V33.904L157.69 34.432C157.37 35.328 156.858 36.016 156.154 36.496C155.45 36.976 154.618 37.216 153.658 37.216ZM164.603 37.168C164.203 37.168 163.899 37.064 163.691 36.856C163.483 36.632 163.379 36.328 163.379 35.944V26.344C163.379 25.944 163.483 25.64 163.691 25.432C163.899 25.224 164.187 25.12 164.555 25.12C164.939 25.12 165.227 25.224 165.419 25.432C165.627 25.64 165.731 25.944 165.731 26.344V28.096H165.491C165.747 27.136 166.219 26.408 166.907 25.912C167.595 25.416 168.475 25.128 169.547 25.048C169.835 25.032 170.059 25.104 170.219 25.264C170.395 25.424 170.491 25.672 170.507 26.008C170.539 26.344 170.467 26.616 170.291 26.824C170.115 27.016 169.843 27.128 169.475 27.16L169.019 27.208C167.979 27.304 167.187 27.632 166.643 28.192C166.099 28.752 165.827 29.52 165.827 30.496V35.944C165.827 36.328 165.723 36.632 165.515 36.856C165.323 37.064 165.019 37.168 164.603 37.168ZM177.561 37.216C176.361 37.216 175.321 36.968 174.441 36.472C173.577 35.96 172.905 35.248 172.425 34.336C171.945 33.408 171.705 32.32 171.705 31.072C171.705 30.144 171.841 29.312 172.113 28.576C172.385 27.824 172.769 27.192 173.265 26.68C173.777 26.168 174.393 25.776 175.113 25.504C175.849 25.216 176.665 25.072 177.561 25.072C178.121 25.072 178.705 25.16 179.313 25.336C179.937 25.496 180.513 25.768 181.041 26.152C181.249 26.28 181.377 26.44 181.425 26.632C181.489 26.808 181.497 26.992 181.449 27.184C181.417 27.376 181.329 27.544 181.185 27.688C181.057 27.816 180.897 27.896 180.705 27.928C180.513 27.944 180.305 27.888 180.081 27.76C179.697 27.488 179.305 27.296 178.905 27.184C178.505 27.056 178.121 26.992 177.753 26.992C177.177 26.992 176.665 27.088 176.217 27.28C175.785 27.456 175.417 27.72 175.113 28.072C174.809 28.408 174.577 28.832 174.417 29.344C174.273 29.856 174.201 30.44 174.201 31.096C174.201 32.408 174.505 33.44 175.113 34.192C175.737 34.928 176.617 35.296 177.753 35.296C178.121 35.296 178.505 35.24 178.905 35.128C179.305 35.016 179.697 34.824 180.081 34.552C180.305 34.424 180.513 34.376 180.705 34.408C180.897 34.44 181.049 34.528 181.161 34.672C181.289 34.8 181.369 34.96 181.401 35.152C181.449 35.328 181.441 35.512 181.377 35.704C181.313 35.896 181.177 36.056 180.969 36.184C180.457 36.552 179.897 36.816 179.289 36.976C178.697 37.136 178.121 37.216 177.561 37.216ZM185.037 37.168C184.653 37.168 184.357 37.064 184.149 36.856C183.941 36.632 183.837 36.328 183.837 35.944V21.136C183.837 20.736 183.941 20.432 184.149 20.224C184.357 20.016 184.653 19.912 185.037 19.912C185.421 19.912 185.717 20.016 185.925 20.224C186.149 20.432 186.261 20.736 186.261 21.136V27.784H185.925C186.277 26.888 186.829 26.216 187.581 25.768C188.333 25.304 189.197 25.072 190.173 25.072C191.101 25.072 191.869 25.248 192.477 25.6C193.101 25.936 193.565 26.456 193.869 27.16C194.173 27.848 194.325 28.72 194.325 29.776V35.944C194.325 36.328 194.221 36.632 194.013 36.856C193.805 37.064 193.509 37.168 193.125 37.168C192.725 37.168 192.421 37.064 192.213 36.856C192.005 36.632 191.901 36.328 191.901 35.944V29.92C191.901 28.912 191.701 28.176 191.301 27.712C190.917 27.248 190.309 27.016 189.477 27.016C188.501 27.016 187.717 27.32 187.125 27.928C186.549 28.536 186.261 29.352 186.261 30.376V35.944C186.261 36.76 185.853 37.168 185.037 37.168ZM201.642 37.216C200.826 37.216 200.09 37.056 199.434 36.736C198.794 36.416 198.29 35.984 197.922 35.44C197.554 34.896 197.37 34.28 197.37 33.592C197.37 32.728 197.586 32.048 198.018 31.552C198.466 31.04 199.194 30.68 200.202 30.472C201.226 30.248 202.602 30.136 204.33 30.136H205.458V31.624H204.354C203.202 31.624 202.29 31.68 201.618 31.792C200.946 31.904 200.466 32.096 200.178 32.368C199.906 32.624 199.77 32.984 199.77 33.448C199.77 34.056 199.978 34.552 200.394 34.936C200.81 35.304 201.386 35.488 202.122 35.488C202.714 35.488 203.234 35.352 203.682 35.08C204.13 34.792 204.482 34.408 204.738 33.928C205.01 33.448 205.146 32.896 205.146 32.272V29.512C205.146 28.6 204.954 27.944 204.57 27.544C204.186 27.144 203.554 26.944 202.674 26.944C202.162 26.944 201.626 27.008 201.066 27.136C200.522 27.264 199.954 27.48 199.362 27.784C199.09 27.912 198.858 27.952 198.666 27.904C198.474 27.856 198.322 27.752 198.21 27.592C198.098 27.416 198.034 27.232 198.018 27.04C198.018 26.832 198.066 26.632 198.162 26.44C198.274 26.248 198.458 26.104 198.714 26.008C199.418 25.672 200.114 25.432 200.802 25.288C201.49 25.144 202.138 25.072 202.746 25.072C203.818 25.072 204.698 25.24 205.386 25.576C206.09 25.912 206.61 26.424 206.946 27.112C207.282 27.8 207.45 28.688 207.45 29.776V35.944C207.45 36.328 207.354 36.632 207.162 36.856C206.97 37.064 206.69 37.168 206.322 37.168C205.97 37.168 205.69 37.064 205.482 36.856C205.274 36.632 205.17 36.328 205.17 35.944V34.384H205.386C205.258 34.976 205.018 35.488 204.666 35.92C204.33 36.336 203.906 36.656 203.394 36.88C202.882 37.104 202.298 37.216 201.642 37.216ZM215.125 37.216C214.421 37.216 213.693 37.136 212.941 36.976C212.205 36.816 211.525 36.544 210.901 36.16C210.693 36.016 210.549 35.856 210.469 35.68C210.389 35.504 210.357 35.328 210.373 35.152C210.405 34.96 210.477 34.8 210.589 34.672C210.717 34.528 210.869 34.44 211.045 34.408C211.237 34.376 211.437 34.416 211.645 34.528C212.269 34.88 212.869 35.128 213.445 35.272C214.021 35.4 214.589 35.464 215.149 35.464C215.997 35.464 216.637 35.312 217.069 35.008C217.501 34.704 217.717 34.296 217.717 33.784C217.717 33.368 217.573 33.048 217.285 32.824C216.997 32.584 216.565 32.4 215.989 32.272L213.709 31.816C212.717 31.608 211.965 31.24 211.453 30.712C210.941 30.184 210.685 29.512 210.685 28.696C210.685 27.96 210.885 27.32 211.285 26.776C211.685 26.232 212.245 25.816 212.965 25.528C213.685 25.224 214.517 25.072 215.461 25.072C216.165 25.072 216.829 25.16 217.453 25.336C218.077 25.512 218.653 25.776 219.181 26.128C219.389 26.24 219.525 26.392 219.589 26.584C219.653 26.76 219.661 26.936 219.613 27.112C219.581 27.288 219.501 27.448 219.373 27.592C219.245 27.72 219.085 27.8 218.893 27.832C218.717 27.848 218.517 27.8 218.293 27.688C217.813 27.384 217.333 27.168 216.853 27.04C216.389 26.912 215.925 26.848 215.461 26.848C214.613 26.848 213.973 27.008 213.541 27.328C213.125 27.632 212.917 28.048 212.917 28.576C212.917 28.976 213.045 29.304 213.301 29.56C213.557 29.816 213.957 30 214.501 30.112L216.781 30.568C217.821 30.776 218.605 31.128 219.133 31.624C219.677 32.12 219.949 32.792 219.949 33.64C219.949 34.744 219.509 35.616 218.629 36.256C217.749 36.896 216.581 37.216 215.125 37.216ZM228.375 37.216C227.095 37.216 225.991 36.976 225.063 36.496C224.151 36 223.439 35.304 222.927 34.408C222.431 33.496 222.183 32.416 222.183 31.168C222.183 29.952 222.431 28.888 222.927 27.976C223.423 27.064 224.103 26.352 224.967 25.84C225.831 25.328 226.815 25.072 227.919 25.072C228.735 25.072 229.463 25.208 230.103 25.48C230.743 25.736 231.287 26.12 231.735 26.632C232.199 27.128 232.543 27.736 232.767 28.456C233.007 29.176 233.127 29.984 233.127 30.88C233.127 31.152 233.047 31.36 232.887 31.504C232.727 31.632 232.487 31.696 232.167 31.696H224.103V30.208H231.495L231.087 30.544C231.087 29.744 230.967 29.064 230.727 28.504C230.503 27.944 230.159 27.52 229.695 27.232C229.247 26.928 228.687 26.776 228.015 26.776C227.263 26.776 226.623 26.952 226.095 27.304C225.583 27.656 225.191 28.144 224.919 28.768C224.647 29.392 224.511 30.12 224.511 30.952V31.096C224.511 32.504 224.839 33.568 225.495 34.288C226.167 34.992 227.135 35.344 228.399 35.344C228.879 35.344 229.383 35.28 229.911 35.152C230.455 35.024 230.967 34.808 231.447 34.504C231.719 34.344 231.959 34.272 232.167 34.288C232.391 34.304 232.567 34.376 232.695 34.504C232.839 34.632 232.927 34.792 232.959 34.984C232.991 35.176 232.959 35.376 232.863 35.584C232.767 35.776 232.599 35.952 232.359 36.112C231.815 36.48 231.183 36.76 230.463 36.952C229.743 37.128 229.047 37.216 228.375 37.216ZM240.107 37.216C239.403 37.216 238.675 37.136 237.923 36.976C237.187 36.816 236.507 36.544 235.883 36.16C235.675 36.016 235.531 35.856 235.451 35.68C235.371 35.504 235.339 35.328 235.355 35.152C235.387 34.96 235.459 34.8 235.571 34.672C235.699 34.528 235.851 34.44 236.027 34.408C236.219 34.376 236.419 34.416 236.627 34.528C237.251 34.88 237.851 35.128 238.427 35.272C239.003 35.4 239.571 35.464 240.131 35.464C240.979 35.464 241.619 35.312 242.051 35.008C242.483 34.704 242.699 34.296 242.699 33.784C242.699 33.368 242.555 33.048 242.267 32.824C241.979 32.584 241.547 32.4 240.971 32.272L238.691 31.816C237.699 31.608 236.947 31.24 236.435 30.712C235.923 30.184 235.667 29.512 235.667 28.696C235.667 27.96 235.867 27.32 236.267 26.776C236.667 26.232 237.227 25.816 237.947 25.528C238.667 25.224 239.499 25.072 240.443 25.072C241.147 25.072 241.811 25.16 242.435 25.336C243.059 25.512 243.635 25.776 244.163 26.128C244.371 26.24 244.507 26.392 244.571 26.584C244.635 26.76 244.643 26.936 244.595 27.112C244.563 27.288 244.483 27.448 244.355 27.592C244.227 27.72 244.067 27.8 243.875 27.832C243.699 27.848 243.499 27.8 243.275 27.688C242.795 27.384 242.315 27.168 241.835 27.04C241.371 26.912 240.907 26.848 240.443 26.848C239.595 26.848 238.955 27.008 238.523 27.328C238.107 27.632 237.899 28.048 237.899 28.576C237.899 28.976 238.027 29.304 238.283 29.56C238.539 29.816 238.939 30 239.483 30.112L241.763 30.568C242.803 30.776 243.587 31.128 244.115 31.624C244.659 32.12 244.931 32.792 244.931 33.64C244.931 34.744 244.491 35.616 243.611 36.256C242.731 36.896 241.563 37.216 240.107 37.216Z" fill="white"/>
<rect x="23" y="60" width="45" height="30" rx="10" fill="#E6D6BB"/>
<rect x="23" y="112" width="45" height="30" rx="10" fill="#E6D6BB"/>
</svg>
