<svg width="324" height="239" viewBox="0 0 324 239" fill="none" xmlns="http://www.w3.org/2000/svg">
<path d="M0 20C0 8.9543 8.95431 0 20 0H304C315.046 0 324 8.95431 324 20V219C324 230.046 315.046 239 304 239H20C8.95431 239 0 230.046 0 219V20Z" fill="#A0B6DD"/>
<path d="M156 83.5C156 79.3579 159.358 76 163.5 76H299.5C303.642 76 307 79.3579 307 83.5C307 87.6421 303.642 91 299.5 91H163.5C159.358 91 156 87.6421 156 83.5Z" fill="#C3D1E9"/>
<path d="M156 114.5C156 110.358 159.358 107 163.5 107H260.5C264.642 107 268 110.358 268 114.5C268 118.642 264.642 122 260.5 122H163.5C159.358 122 156 118.642 156 114.5Z" fill="#C3D1E9"/>
<path d="M154 145.5C154 141.358 157.358 138 161.5 138H290.5C294.642 138 298 141.358 298 145.5C298 149.642 294.642 153 290.5 153H161.5C157.358 153 154 149.642 154 145.5Z" fill="#C3D1E9"/>
<path d="M100.78 42.216C100.044 42.216 99.3238 42.16 98.6198 42.048C97.9158 41.936 97.2518 41.768 96.6278 41.544C96.0038 41.304 95.4438 41.016 94.9478 40.68C94.7078 40.504 94.5398 40.304 94.4438 40.08C94.3638 39.856 94.3398 39.64 94.3718 39.432C94.4198 39.208 94.5158 39.016 94.6598 38.856C94.8038 38.696 94.9798 38.6 95.1878 38.568C95.3958 38.52 95.6278 38.584 95.8838 38.76C96.6038 39.224 97.3638 39.568 98.1638 39.792C98.9638 40 99.8358 40.104 100.78 40.104C102.14 40.104 103.14 39.864 103.78 39.384C104.436 38.888 104.764 38.248 104.764 37.464C104.764 36.824 104.532 36.32 104.068 35.952C103.604 35.568 102.828 35.264 101.74 35.04L99.1718 34.512C97.6518 34.192 96.5158 33.664 95.7638 32.928C95.0278 32.192 94.6598 31.2 94.6598 29.952C94.6598 29.2 94.8118 28.512 95.1158 27.888C95.4358 27.264 95.8758 26.728 96.4358 26.28C96.9958 25.816 97.6678 25.464 98.4518 25.224C99.2358 24.984 100.092 24.864 101.02 24.864C102.012 24.864 102.94 24.992 103.804 25.248C104.684 25.504 105.468 25.896 106.156 26.424C106.364 26.568 106.5 26.752 106.564 26.976C106.644 27.184 106.66 27.392 106.612 27.6C106.58 27.808 106.492 27.984 106.348 28.128C106.204 28.272 106.02 28.36 105.796 28.392C105.572 28.408 105.324 28.328 105.052 28.152C104.428 27.736 103.788 27.44 103.132 27.264C102.492 27.072 101.78 26.976 100.996 26.976C100.212 26.976 99.5238 27.096 98.9318 27.336C98.3558 27.576 97.9078 27.912 97.5878 28.344C97.2838 28.776 97.1318 29.288 97.1318 29.88C97.1318 30.552 97.3478 31.088 97.7798 31.488C98.2118 31.888 98.9318 32.192 99.9398 32.4L102.484 32.928C104.084 33.264 105.276 33.784 106.06 34.488C106.844 35.192 107.236 36.128 107.236 37.296C107.236 38.048 107.084 38.728 106.78 39.336C106.476 39.928 106.044 40.44 105.484 40.872C104.924 41.304 104.244 41.64 103.444 41.88C102.66 42.104 101.772 42.216 100.78 42.216ZM114.214 42.216C113.27 42.216 112.478 42.04 111.838 41.688C111.214 41.336 110.742 40.816 110.422 40.128C110.118 39.424 109.966 38.544 109.966 37.488V31.344C109.966 30.928 110.07 30.624 110.278 30.432C110.486 30.224 110.782 30.12 111.166 30.12C111.55 30.12 111.846 30.224 112.054 30.432C112.278 30.624 112.39 30.928 112.39 31.344V37.512C112.39 38.456 112.582 39.152 112.966 39.6C113.35 40.048 113.958 40.272 114.79 40.272C115.702 40.272 116.438 39.968 116.998 39.36C117.574 38.736 117.862 37.92 117.862 36.912V31.344C117.862 30.928 117.966 30.624 118.174 30.432C118.382 30.224 118.686 30.12 119.086 30.12C119.47 30.12 119.766 30.224 119.974 30.432C120.182 30.624 120.286 30.928 120.286 31.344V40.944C120.286 41.76 119.894 42.168 119.11 42.168C118.742 42.168 118.454 42.064 118.246 41.856C118.038 41.632 117.934 41.328 117.934 40.944V38.904L118.246 39.432C117.926 40.328 117.414 41.016 116.71 41.496C116.006 41.976 115.174 42.216 114.214 42.216ZM129.239 46.536C128.375 46.536 127.535 46.448 126.719 46.272C125.919 46.096 125.191 45.808 124.535 45.408C124.295 45.28 124.135 45.12 124.055 44.928C123.975 44.752 123.951 44.568 123.983 44.376C124.031 44.184 124.119 44.016 124.247 43.872C124.375 43.728 124.527 43.632 124.703 43.584C124.895 43.536 125.095 43.568 125.303 43.68C126.007 44.064 126.671 44.32 127.295 44.448C127.935 44.592 128.527 44.664 129.071 44.664C130.191 44.664 131.031 44.376 131.591 43.8C132.151 43.24 132.431 42.408 132.431 41.304V38.856H132.647C132.407 39.736 131.903 40.432 131.135 40.944C130.367 41.456 129.479 41.712 128.471 41.712C127.415 41.712 126.495 41.472 125.711 40.992C124.927 40.496 124.319 39.816 123.887 38.952C123.455 38.072 123.239 37.048 123.239 35.88C123.239 35 123.359 34.208 123.599 33.504C123.855 32.8 124.207 32.192 124.655 31.68C125.119 31.168 125.671 30.776 126.311 30.504C126.967 30.216 127.687 30.072 128.471 30.072C129.495 30.072 130.383 30.328 131.135 30.84C131.903 31.352 132.399 32.048 132.623 32.928L132.383 33.336V31.344C132.383 30.944 132.487 30.64 132.695 30.432C132.919 30.224 133.215 30.12 133.583 30.12C133.967 30.12 134.263 30.224 134.471 30.432C134.679 30.64 134.783 30.944 134.783 31.344V41.016C134.783 42.84 134.311 44.216 133.367 45.144C132.423 46.072 131.047 46.536 129.239 46.536ZM129.047 39.816C129.751 39.816 130.351 39.656 130.847 39.336C131.343 39.016 131.727 38.56 131.999 37.968C132.271 37.376 132.407 36.68 132.407 35.88C132.407 34.68 132.103 33.728 131.495 33.024C130.903 32.32 130.087 31.968 129.047 31.968C128.359 31.968 127.767 32.128 127.271 32.448C126.775 32.768 126.383 33.224 126.095 33.816C125.823 34.392 125.687 35.08 125.687 35.88C125.687 37.096 125.991 38.056 126.599 38.76C127.207 39.464 128.023 39.816 129.047 39.816ZM143.722 46.536C142.858 46.536 142.018 46.448 141.202 46.272C140.402 46.096 139.674 45.808 139.018 45.408C138.778 45.28 138.618 45.12 138.538 44.928C138.458 44.752 138.434 44.568 138.466 44.376C138.514 44.184 138.602 44.016 138.73 43.872C138.858 43.728 139.01 43.632 139.186 43.584C139.378 43.536 139.578 43.568 139.786 43.68C140.49 44.064 141.154 44.32 141.778 44.448C142.418 44.592 143.01 44.664 143.554 44.664C144.674 44.664 145.514 44.376 146.074 43.8C146.634 43.24 146.914 42.408 146.914 41.304V38.856H147.13C146.89 39.736 146.386 40.432 145.618 40.944C144.85 41.456 143.962 41.712 142.954 41.712C141.898 41.712 140.978 41.472 140.194 40.992C139.41 40.496 138.802 39.816 138.37 38.952C137.938 38.072 137.722 37.048 137.722 35.88C137.722 35 137.842 34.208 138.082 33.504C138.338 32.8 138.69 32.192 139.138 31.68C139.602 31.168 140.154 30.776 140.794 30.504C141.45 30.216 142.17 30.072 142.954 30.072C143.978 30.072 144.866 30.328 145.618 30.84C146.386 31.352 146.882 32.048 147.106 32.928L146.866 33.336V31.344C146.866 30.944 146.97 30.64 147.178 30.432C147.402 30.224 147.698 30.12 148.066 30.12C148.45 30.12 148.746 30.224 148.954 30.432C149.162 30.64 149.266 30.944 149.266 31.344V41.016C149.266 42.84 148.794 44.216 147.85 45.144C146.906 46.072 145.53 46.536 143.722 46.536ZM143.53 39.816C144.234 39.816 144.834 39.656 145.33 39.336C145.826 39.016 146.21 38.56 146.482 37.968C146.754 37.376 146.89 36.68 146.89 35.88C146.89 34.68 146.586 33.728 145.978 33.024C145.386 32.32 144.57 31.968 143.53 31.968C142.842 31.968 142.25 32.128 141.754 32.448C141.258 32.768 140.866 33.224 140.578 33.816C140.306 34.392 140.17 35.08 140.17 35.88C140.17 37.096 140.474 38.056 141.082 38.76C141.69 39.464 142.506 39.816 143.53 39.816ZM158.397 42.216C157.117 42.216 156.013 41.976 155.085 41.496C154.173 41 153.461 40.304 152.949 39.408C152.453 38.496 152.205 37.416 152.205 36.168C152.205 34.952 152.453 33.888 152.949 32.976C153.445 32.064 154.125 31.352 154.989 30.84C155.853 30.328 156.837 30.072 157.941 30.072C158.757 30.072 159.485 30.208 160.125 30.48C160.765 30.736 161.309 31.12 161.757 31.632C162.221 32.128 162.565 32.736 162.789 33.456C163.029 34.176 163.149 34.984 163.149 35.88C163.149 36.152 163.069 36.36 162.909 36.504C162.749 36.632 162.509 36.696 162.189 36.696H154.125V35.208H161.517L161.109 35.544C161.109 34.744 160.989 34.064 160.749 33.504C160.525 32.944 160.181 32.52 159.717 32.232C159.269 31.928 158.709 31.776 158.037 31.776C157.285 31.776 156.645 31.952 156.117 32.304C155.605 32.656 155.213 33.144 154.941 33.768C154.669 34.392 154.533 35.12 154.533 35.952V36.096C154.533 37.504 154.861 38.568 155.517 39.288C156.189 39.992 157.157 40.344 158.421 40.344C158.901 40.344 159.405 40.28 159.933 40.152C160.477 40.024 160.989 39.808 161.469 39.504C161.741 39.344 161.981 39.272 162.189 39.288C162.413 39.304 162.589 39.376 162.717 39.504C162.861 39.632 162.949 39.792 162.981 39.984C163.013 40.176 162.981 40.376 162.885 40.584C162.789 40.776 162.621 40.952 162.381 41.112C161.837 41.48 161.205 41.76 160.485 41.952C159.765 42.128 159.069 42.216 158.397 42.216ZM170.128 42.216C169.424 42.216 168.696 42.136 167.944 41.976C167.208 41.816 166.528 41.544 165.904 41.16C165.696 41.016 165.552 40.856 165.472 40.68C165.392 40.504 165.36 40.328 165.376 40.152C165.408 39.96 165.48 39.8 165.592 39.672C165.72 39.528 165.872 39.44 166.048 39.408C166.24 39.376 166.44 39.416 166.648 39.528C167.272 39.88 167.872 40.128 168.448 40.272C169.024 40.4 169.592 40.464 170.152 40.464C171 40.464 171.64 40.312 172.072 40.008C172.504 39.704 172.72 39.296 172.72 38.784C172.72 38.368 172.576 38.048 172.288 37.824C172 37.584 171.568 37.4 170.992 37.272L168.712 36.816C167.72 36.608 166.968 36.24 166.456 35.712C165.944 35.184 165.688 34.512 165.688 33.696C165.688 32.96 165.888 32.32 166.288 31.776C166.688 31.232 167.248 30.816 167.968 30.528C168.688 30.224 169.52 30.072 170.464 30.072C171.168 30.072 171.832 30.16 172.456 30.336C173.08 30.512 173.656 30.776 174.184 31.128C174.392 31.24 174.528 31.392 174.592 31.584C174.656 31.76 174.664 31.936 174.616 32.112C174.584 32.288 174.504 32.448 174.376 32.592C174.248 32.72 174.088 32.8 173.896 32.832C173.72 32.848 173.52 32.8 173.296 32.688C172.816 32.384 172.336 32.168 171.856 32.04C171.392 31.912 170.928 31.848 170.464 31.848C169.616 31.848 168.976 32.008 168.544 32.328C168.128 32.632 167.92 33.048 167.92 33.576C167.92 33.976 168.048 34.304 168.304 34.56C168.56 34.816 168.96 35 169.504 35.112L171.784 35.568C172.824 35.776 173.608 36.128 174.136 36.624C174.68 37.12 174.952 37.792 174.952 38.64C174.952 39.744 174.512 40.616 173.632 41.256C172.752 41.896 171.584 42.216 170.128 42.216ZM182.757 42.216C181.797 42.216 180.989 42.048 180.333 41.712C179.677 41.376 179.189 40.88 178.869 40.224C178.549 39.568 178.389 38.768 178.389 37.824V32.16H176.949C176.629 32.16 176.381 32.08 176.205 31.92C176.029 31.744 175.941 31.512 175.941 31.224C175.941 30.92 176.029 30.688 176.205 30.528C176.381 30.368 176.629 30.288 176.949 30.288H178.389V27.816C178.389 27.416 178.493 27.112 178.701 26.904C178.925 26.696 179.229 26.592 179.613 26.592C179.997 26.592 180.293 26.696 180.501 26.904C180.709 27.112 180.813 27.416 180.813 27.816V30.288H183.621C183.941 30.288 184.189 30.368 184.365 30.528C184.541 30.688 184.629 30.92 184.629 31.224C184.629 31.512 184.541 31.744 184.365 31.92C184.189 32.08 183.941 32.16 183.621 32.16H180.813V37.632C180.813 38.48 180.989 39.12 181.341 39.552C181.709 39.984 182.301 40.2 183.117 40.2C183.405 40.2 183.653 40.176 183.861 40.128C184.085 40.064 184.269 40.024 184.413 40.008C184.589 40.008 184.733 40.072 184.845 40.2C184.957 40.312 185.013 40.536 185.013 40.872C185.013 41.112 184.965 41.336 184.869 41.544C184.789 41.752 184.637 41.888 184.413 41.952C184.221 42.016 183.957 42.072 183.621 42.12C183.301 42.184 183.013 42.216 182.757 42.216ZM188.174 42.144C187.79 42.144 187.494 42.032 187.286 41.808C187.078 41.568 186.974 41.24 186.974 40.824V31.464C186.974 31.048 187.078 30.728 187.286 30.504C187.494 30.28 187.79 30.168 188.174 30.168C188.558 30.168 188.854 30.28 189.062 30.504C189.286 30.728 189.398 31.048 189.398 31.464V40.824C189.398 41.24 189.294 41.568 189.086 41.808C188.878 42.032 188.574 42.144 188.174 42.144ZM188.174 27.672C187.694 27.672 187.318 27.552 187.046 27.312C186.79 27.072 186.662 26.736 186.662 26.304C186.662 25.856 186.79 25.52 187.046 25.296C187.318 25.056 187.694 24.936 188.174 24.936C188.654 24.936 189.022 25.056 189.278 25.296C189.55 25.52 189.686 25.856 189.686 26.304C189.686 26.736 189.55 27.072 189.278 27.312C189.022 27.552 188.654 27.672 188.174 27.672ZM198.131 42.216C196.947 42.216 195.923 41.968 195.059 41.472C194.211 40.976 193.547 40.272 193.067 39.36C192.587 38.448 192.347 37.376 192.347 36.144C192.347 35.2 192.483 34.36 192.755 33.624C193.027 32.888 193.411 32.256 193.907 31.728C194.419 31.184 195.027 30.776 195.731 30.504C196.451 30.216 197.251 30.072 198.131 30.072C199.299 30.072 200.307 30.32 201.155 30.816C202.019 31.312 202.691 32.016 203.171 32.928C203.651 33.824 203.891 34.896 203.891 36.144C203.891 37.072 203.755 37.912 203.483 38.664C203.211 39.416 202.819 40.056 202.307 40.584C201.811 41.112 201.203 41.52 200.483 41.808C199.779 42.08 198.995 42.216 198.131 42.216ZM198.131 40.344C198.787 40.344 199.363 40.184 199.859 39.864C200.355 39.544 200.739 39.072 201.011 38.448C201.299 37.824 201.443 37.056 201.443 36.144C201.443 34.768 201.139 33.728 200.531 33.024C199.923 32.32 199.123 31.968 198.131 31.968C197.459 31.968 196.875 32.128 196.379 32.448C195.883 32.752 195.491 33.216 195.203 33.84C194.931 34.464 194.795 35.232 194.795 36.144C194.795 37.504 195.099 38.544 195.707 39.264C196.315 39.984 197.123 40.344 198.131 40.344ZM208.046 42.168C207.662 42.168 207.366 42.064 207.158 41.856C206.95 41.632 206.846 41.328 206.846 40.944V31.344C206.846 30.944 206.95 30.64 207.158 30.432C207.366 30.224 207.654 30.12 208.022 30.12C208.406 30.12 208.694 30.224 208.886 30.432C209.094 30.64 209.198 30.944 209.198 31.344V33.216L208.934 32.784C209.286 31.888 209.838 31.216 210.59 30.768C211.342 30.304 212.206 30.072 213.182 30.072C214.11 30.072 214.878 30.248 215.486 30.6C216.11 30.936 216.574 31.456 216.878 32.16C217.182 32.848 217.334 33.72 217.334 34.776V40.944C217.334 41.328 217.23 41.632 217.022 41.856C216.814 42.064 216.518 42.168 216.134 42.168C215.734 42.168 215.43 42.064 215.222 41.856C215.014 41.632 214.91 41.328 214.91 40.944V34.92C214.91 33.912 214.71 33.176 214.31 32.712C213.926 32.248 213.318 32.016 212.486 32.016C211.51 32.016 210.726 32.32 210.134 32.928C209.558 33.536 209.27 34.352 209.27 35.376V40.944C209.27 41.76 208.862 42.168 208.046 42.168ZM225.011 42.216C224.307 42.216 223.579 42.136 222.827 41.976C222.091 41.816 221.411 41.544 220.787 41.16C220.579 41.016 220.435 40.856 220.355 40.68C220.275 40.504 220.243 40.328 220.259 40.152C220.291 39.96 220.363 39.8 220.475 39.672C220.603 39.528 220.755 39.44 220.931 39.408C221.123 39.376 221.323 39.416 221.531 39.528C222.155 39.88 222.755 40.128 223.331 40.272C223.907 40.4 224.475 40.464 225.035 40.464C225.883 40.464 226.523 40.312 226.955 40.008C227.387 39.704 227.603 39.296 227.603 38.784C227.603 38.368 227.459 38.048 227.171 37.824C226.883 37.584 226.451 37.4 225.875 37.272L223.595 36.816C222.603 36.608 221.851 36.24 221.339 35.712C220.827 35.184 220.571 34.512 220.571 33.696C220.571 32.96 220.771 32.32 221.171 31.776C221.571 31.232 222.131 30.816 222.851 30.528C223.571 30.224 224.403 30.072 225.347 30.072C226.051 30.072 226.715 30.16 227.339 30.336C227.963 30.512 228.539 30.776 229.067 31.128C229.275 31.24 229.411 31.392 229.475 31.584C229.539 31.76 229.547 31.936 229.499 32.112C229.467 32.288 229.387 32.448 229.259 32.592C229.131 32.72 228.971 32.8 228.779 32.832C228.603 32.848 228.403 32.8 228.179 32.688C227.699 32.384 227.219 32.168 226.739 32.04C226.275 31.912 225.811 31.848 225.347 31.848C224.499 31.848 223.859 32.008 223.427 32.328C223.011 32.632 222.803 33.048 222.803 33.576C222.803 33.976 222.931 34.304 223.187 34.56C223.443 34.816 223.843 35 224.387 35.112L226.667 35.568C227.707 35.776 228.491 36.128 229.019 36.624C229.563 37.12 229.835 37.792 229.835 38.64C229.835 39.744 229.395 40.616 228.515 41.256C227.635 41.896 226.467 42.216 225.011 42.216Z" fill="white"/>
<rect x="23" y="70" width="102" height="90" rx="10" fill="#C3D1E9"/>
<path d="M102 198C102 192.477 106.477 188 112 188H199C204.523 188 209 192.477 209 198V210C209 215.523 204.523 220 199 220H112C106.477 220 102 215.523 102 210V198Z" fill="#C3D1E9"/>
</svg>
