<svg width="127" height="19" viewBox="0 0 127 19" fill="none" xmlns="http://www.w3.org/2000/svg">
<path d="M7.44773 18.216C6.71173 18.216 5.99173 18.16 5.28773 18.048C4.58373 17.936 3.91973 17.768 3.29573 17.544C2.67173 17.304 2.11173 17.016 1.61573 16.68C1.37573 16.504 1.20773 16.304 1.11173 16.08C1.03173 15.856 1.00773 15.64 1.03973 15.432C1.08773 15.208 1.18373 15.016 1.32773 14.856C1.47173 14.696 1.64773 14.6 1.85573 14.568C2.06373 14.52 2.29573 14.584 2.55173 14.76C3.27173 15.224 4.03173 15.568 4.83173 15.792C5.63173 16 6.50373 16.104 7.44773 16.104C8.80773 16.104 9.80773 15.864 10.4477 15.384C11.1037 14.888 11.4317 14.248 11.4317 13.464C11.4317 12.824 11.1997 12.32 10.7357 11.952C10.2717 11.568 9.49573 11.264 8.40773 11.04L5.83973 10.512C4.31973 10.192 3.18373 9.664 2.43173 8.928C1.69573 8.192 1.32773 7.2 1.32773 5.952C1.32773 5.2 1.47973 4.512 1.78373 3.888C2.10373 3.264 2.54373 2.728 3.10373 2.28C3.66373 1.816 4.33573 1.464 5.11973 1.224C5.90373 0.983999 6.75973 0.863999 7.68773 0.863999C8.67973 0.863999 9.60773 0.991999 10.4717 1.248C11.3517 1.504 12.1357 1.896 12.8237 2.424C13.0317 2.568 13.1677 2.752 13.2317 2.976C13.3117 3.184 13.3277 3.392 13.2797 3.6C13.2477 3.808 13.1597 3.984 13.0157 4.128C12.8717 4.272 12.6877 4.36 12.4637 4.392C12.2397 4.408 11.9917 4.328 11.7197 4.152C11.0957 3.736 10.4557 3.44 9.79973 3.264C9.15973 3.072 8.44773 2.976 7.66373 2.976C6.87973 2.976 6.19173 3.096 5.59973 3.336C5.02373 3.576 4.57573 3.912 4.25573 4.344C3.95173 4.776 3.79973 5.288 3.79973 5.88C3.79973 6.552 4.01573 7.088 4.44773 7.488C4.87973 7.888 5.59973 8.192 6.60773 8.4L9.15173 8.928C10.7517 9.264 11.9437 9.784 12.7277 10.488C13.5117 11.192 13.9037 12.128 13.9037 13.296C13.9037 14.048 13.7517 14.728 13.4477 15.336C13.1437 15.928 12.7117 16.44 12.1517 16.872C11.5917 17.304 10.9117 17.64 10.1117 17.88C9.32773 18.104 8.43973 18.216 7.44773 18.216ZM21.6279 18.216C20.6679 18.216 19.8599 18.048 19.2039 17.712C18.5479 17.376 18.0599 16.88 17.7399 16.224C17.4199 15.568 17.2599 14.768 17.2599 13.824V8.16H15.8199C15.4999 8.16 15.2519 8.08 15.0759 7.92C14.8999 7.744 14.8119 7.512 14.8119 7.224C14.8119 6.92 14.8999 6.688 15.0759 6.528C15.2519 6.368 15.4999 6.288 15.8199 6.288H17.2599V3.816C17.2599 3.416 17.3639 3.112 17.5719 2.904C17.7959 2.696 18.0999 2.592 18.4839 2.592C18.8679 2.592 19.1639 2.696 19.3719 2.904C19.5799 3.112 19.6839 3.416 19.6839 3.816V6.288H22.4919C22.8119 6.288 23.0599 6.368 23.2359 6.528C23.4119 6.688 23.4999 6.92 23.4999 7.224C23.4999 7.512 23.4119 7.744 23.2359 7.92C23.0599 8.08 22.8119 8.16 22.4919 8.16H19.6839V13.632C19.6839 14.48 19.8599 15.12 20.2119 15.552C20.5799 15.984 21.1719 16.2 21.9879 16.2C22.2759 16.2 22.5239 16.176 22.7319 16.128C22.9559 16.064 23.1399 16.024 23.2839 16.008C23.4599 16.008 23.6039 16.072 23.7159 16.2C23.8279 16.312 23.8839 16.536 23.8839 16.872C23.8839 17.112 23.8359 17.336 23.7399 17.544C23.6599 17.752 23.5079 17.888 23.2839 17.952C23.0919 18.016 22.8279 18.072 22.4919 18.12C22.1719 18.184 21.8839 18.216 21.6279 18.216ZM30.6052 18.216C29.4212 18.216 28.3972 17.968 27.5332 17.472C26.6852 16.976 26.0212 16.272 25.5412 15.36C25.0612 14.448 24.8212 13.376 24.8212 12.144C24.8212 11.2 24.9572 10.36 25.2292 9.624C25.5012 8.888 25.8852 8.256 26.3812 7.728C26.8932 7.184 27.5012 6.776 28.2052 6.504C28.9252 6.216 29.7252 6.072 30.6052 6.072C31.7732 6.072 32.7812 6.32 33.6292 6.816C34.4932 7.312 35.1652 8.016 35.6452 8.928C36.1252 9.824 36.3652 10.896 36.3652 12.144C36.3652 13.072 36.2292 13.912 35.9572 14.664C35.6852 15.416 35.2932 16.056 34.7812 16.584C34.2852 17.112 33.6772 17.52 32.9572 17.808C32.2532 18.08 31.4692 18.216 30.6052 18.216ZM30.6052 16.344C31.2612 16.344 31.8372 16.184 32.3332 15.864C32.8292 15.544 33.2132 15.072 33.4852 14.448C33.7732 13.824 33.9172 13.056 33.9172 12.144C33.9172 10.768 33.6132 9.728 33.0052 9.024C32.3972 8.32 31.5972 7.968 30.6052 7.968C29.9332 7.968 29.3492 8.128 28.8532 8.448C28.3572 8.752 27.9652 9.216 27.6772 9.84C27.4052 10.464 27.2692 11.232 27.2692 12.144C27.2692 13.504 27.5732 14.544 28.1812 15.264C28.7892 15.984 29.5972 16.344 30.6052 16.344ZM40.5204 18.168C40.1364 18.168 39.8404 18.064 39.6324 17.856C39.4244 17.632 39.3204 17.328 39.3204 16.944V7.344C39.3204 6.944 39.4244 6.64 39.6324 6.432C39.8404 6.224 40.1284 6.12 40.4964 6.12C40.8804 6.12 41.1684 6.224 41.3604 6.432C41.5684 6.64 41.6724 6.944 41.6724 7.344V9.216L41.4084 8.784C41.7604 7.888 42.3124 7.216 43.0644 6.768C43.8164 6.304 44.6804 6.072 45.6564 6.072C46.5844 6.072 47.3524 6.248 47.9604 6.6C48.5844 6.936 49.0484 7.456 49.3524 8.16C49.6564 8.848 49.8084 9.72 49.8084 10.776V16.944C49.8084 17.328 49.7044 17.632 49.4964 17.856C49.2884 18.064 48.9924 18.168 48.6084 18.168C48.2084 18.168 47.9044 18.064 47.6964 17.856C47.4884 17.632 47.3844 17.328 47.3844 16.944V10.92C47.3844 9.912 47.1844 9.176 46.7844 8.712C46.4004 8.248 45.7924 8.016 44.9604 8.016C43.9844 8.016 43.2004 8.32 42.6084 8.928C42.0324 9.536 41.7444 10.352 41.7444 11.376V16.944C41.7444 17.76 41.3364 18.168 40.5204 18.168ZM58.8773 18.216C57.5973 18.216 56.4933 17.976 55.5653 17.496C54.6533 17 53.9413 16.304 53.4293 15.408C52.9333 14.496 52.6853 13.416 52.6853 12.168C52.6853 10.952 52.9333 9.888 53.4293 8.976C53.9253 8.064 54.6053 7.352 55.4693 6.84C56.3333 6.328 57.3173 6.072 58.4213 6.072C59.2373 6.072 59.9653 6.208 60.6053 6.48C61.2453 6.736 61.7893 7.12 62.2373 7.632C62.7013 8.128 63.0453 8.736 63.2693 9.456C63.5093 10.176 63.6293 10.984 63.6293 11.88C63.6293 12.152 63.5493 12.36 63.3893 12.504C63.2293 12.632 62.9893 12.696 62.6693 12.696H54.6053V11.208H61.9973L61.5893 11.544C61.5893 10.744 61.4693 10.064 61.2293 9.504C61.0053 8.944 60.6613 8.52 60.1973 8.232C59.7493 7.928 59.1893 7.776 58.5173 7.776C57.7653 7.776 57.1253 7.952 56.5973 8.304C56.0853 8.656 55.6933 9.144 55.4213 9.768C55.1493 10.392 55.0133 11.12 55.0133 11.952V12.096C55.0133 13.504 55.3413 14.568 55.9973 15.288C56.6693 15.992 57.6373 16.344 58.9013 16.344C59.3813 16.344 59.8853 16.28 60.4133 16.152C60.9573 16.024 61.4693 15.808 61.9493 15.504C62.2213 15.344 62.4613 15.272 62.6693 15.288C62.8933 15.304 63.0693 15.376 63.1973 15.504C63.3413 15.632 63.4293 15.792 63.4613 15.984C63.4933 16.176 63.4613 16.376 63.3653 16.584C63.2693 16.776 63.1013 16.952 62.8613 17.112C62.3173 17.48 61.6853 17.76 60.9653 17.952C60.2453 18.128 59.5493 18.216 58.8773 18.216ZM67.6808 18.096C67.2168 18.096 66.8408 17.952 66.5528 17.664C66.2648 17.376 66.1208 17.008 66.1208 16.56C66.1208 16.112 66.2648 15.752 66.5528 15.48C66.8408 15.192 67.2168 15.048 67.6808 15.048C68.1448 15.048 68.5128 15.192 68.7848 15.48C69.0568 15.752 69.1928 16.112 69.1928 16.56C69.1928 17.008 69.0568 17.376 68.7848 17.664C68.5128 17.952 68.1448 18.096 67.6808 18.096ZM76.6307 18.216C75.9267 18.216 75.1987 18.136 74.4467 17.976C73.7107 17.816 73.0307 17.544 72.4067 17.16C72.1987 17.016 72.0547 16.856 71.9747 16.68C71.8947 16.504 71.8627 16.328 71.8787 16.152C71.9107 15.96 71.9827 15.8 72.0947 15.672C72.2227 15.528 72.3747 15.44 72.5507 15.408C72.7427 15.376 72.9427 15.416 73.1507 15.528C73.7747 15.88 74.3747 16.128 74.9507 16.272C75.5267 16.4 76.0947 16.464 76.6547 16.464C77.5027 16.464 78.1427 16.312 78.5747 16.008C79.0067 15.704 79.2227 15.296 79.2227 14.784C79.2227 14.368 79.0787 14.048 78.7907 13.824C78.5027 13.584 78.0707 13.4 77.4947 13.272L75.2147 12.816C74.2227 12.608 73.4707 12.24 72.9587 11.712C72.4467 11.184 72.1907 10.512 72.1907 9.696C72.1907 8.96 72.3907 8.32 72.7907 7.776C73.1907 7.232 73.7507 6.816 74.4707 6.528C75.1907 6.224 76.0227 6.072 76.9667 6.072C77.6707 6.072 78.3347 6.16 78.9587 6.336C79.5827 6.512 80.1587 6.776 80.6867 7.128C80.8947 7.24 81.0307 7.392 81.0947 7.584C81.1587 7.76 81.1667 7.936 81.1187 8.112C81.0867 8.288 81.0067 8.448 80.8787 8.592C80.7507 8.72 80.5907 8.8 80.3987 8.832C80.2227 8.848 80.0227 8.8 79.7987 8.688C79.3187 8.384 78.8387 8.168 78.3587 8.04C77.8947 7.912 77.4307 7.848 76.9667 7.848C76.1187 7.848 75.4787 8.008 75.0467 8.328C74.6307 8.632 74.4227 9.048 74.4227 9.576C74.4227 9.976 74.5507 10.304 74.8067 10.56C75.0627 10.816 75.4627 11 76.0067 11.112L78.2867 11.568C79.3267 11.776 80.1107 12.128 80.6387 12.624C81.1827 13.12 81.4547 13.792 81.4547 14.64C81.4547 15.744 81.0147 16.616 80.1347 17.256C79.2547 17.896 78.0867 18.216 76.6307 18.216ZM89.2593 18.216C88.2993 18.216 87.4913 18.048 86.8353 17.712C86.1793 17.376 85.6913 16.88 85.3713 16.224C85.0513 15.568 84.8913 14.768 84.8913 13.824V8.16H83.4513C83.1313 8.16 82.8833 8.08 82.7073 7.92C82.5313 7.744 82.4433 7.512 82.4433 7.224C82.4433 6.92 82.5313 6.688 82.7073 6.528C82.8833 6.368 83.1313 6.288 83.4513 6.288H84.8913V3.816C84.8913 3.416 84.9953 3.112 85.2033 2.904C85.4273 2.696 85.7313 2.592 86.1153 2.592C86.4993 2.592 86.7953 2.696 87.0033 2.904C87.2113 3.112 87.3153 3.416 87.3153 3.816V6.288H90.1233C90.4433 6.288 90.6913 6.368 90.8673 6.528C91.0433 6.688 91.1313 6.92 91.1313 7.224C91.1313 7.512 91.0433 7.744 90.8673 7.92C90.6913 8.08 90.4433 8.16 90.1233 8.16H87.3153V13.632C87.3153 14.48 87.4913 15.12 87.8433 15.552C88.2113 15.984 88.8033 16.2 89.6193 16.2C89.9073 16.2 90.1553 16.176 90.3633 16.128C90.5873 16.064 90.7713 16.024 90.9153 16.008C91.0913 16.008 91.2353 16.072 91.3473 16.2C91.4593 16.312 91.5153 16.536 91.5153 16.872C91.5153 17.112 91.4673 17.336 91.3713 17.544C91.2913 17.752 91.1393 17.888 90.9153 17.952C90.7233 18.016 90.4593 18.072 90.1233 18.12C89.8033 18.184 89.5153 18.216 89.2593 18.216ZM98.2366 18.216C97.0526 18.216 96.0286 17.968 95.1646 17.472C94.3166 16.976 93.6526 16.272 93.1726 15.36C92.6926 14.448 92.4526 13.376 92.4526 12.144C92.4526 11.2 92.5886 10.36 92.8606 9.624C93.1326 8.888 93.5166 8.256 94.0126 7.728C94.5246 7.184 95.1326 6.776 95.8366 6.504C96.5566 6.216 97.3566 6.072 98.2366 6.072C99.4046 6.072 100.413 6.32 101.261 6.816C102.125 7.312 102.797 8.016 103.277 8.928C103.757 9.824 103.997 10.896 103.997 12.144C103.997 13.072 103.861 13.912 103.589 14.664C103.317 15.416 102.925 16.056 102.413 16.584C101.917 17.112 101.309 17.52 100.589 17.808C99.8846 18.08 99.1006 18.216 98.2366 18.216ZM98.2366 16.344C98.8926 16.344 99.4686 16.184 99.9646 15.864C100.461 15.544 100.845 15.072 101.117 14.448C101.405 13.824 101.549 13.056 101.549 12.144C101.549 10.768 101.245 9.728 100.637 9.024C100.029 8.32 99.2286 7.968 98.2366 7.968C97.5646 7.968 96.9806 8.128 96.4846 8.448C95.9886 8.752 95.5966 9.216 95.3086 9.84C95.0366 10.464 94.9006 11.232 94.9006 12.144C94.9006 13.504 95.2046 14.544 95.8126 15.264C96.4206 15.984 97.2286 16.344 98.2366 16.344ZM108.176 18.168C107.776 18.168 107.472 18.064 107.264 17.856C107.056 17.632 106.952 17.328 106.952 16.944V7.344C106.952 6.944 107.056 6.64 107.264 6.432C107.472 6.224 107.76 6.12 108.128 6.12C108.512 6.12 108.8 6.224 108.992 6.432C109.2 6.64 109.304 6.944 109.304 7.344V9.096H109.064C109.32 8.136 109.792 7.408 110.48 6.912C111.168 6.416 112.048 6.128 113.12 6.048C113.408 6.032 113.632 6.104 113.792 6.264C113.968 6.424 114.064 6.672 114.08 7.008C114.112 7.344 114.04 7.616 113.864 7.824C113.688 8.016 113.416 8.128 113.048 8.16L112.592 8.208C111.552 8.304 110.76 8.632 110.216 9.192C109.672 9.752 109.4 10.52 109.4 11.496V16.944C109.4 17.328 109.296 17.632 109.088 17.856C108.896 18.064 108.592 18.168 108.176 18.168ZM121.47 18.216C120.19 18.216 119.086 17.976 118.158 17.496C117.246 17 116.534 16.304 116.022 15.408C115.526 14.496 115.278 13.416 115.278 12.168C115.278 10.952 115.526 9.888 116.022 8.976C116.518 8.064 117.198 7.352 118.062 6.84C118.926 6.328 119.91 6.072 121.014 6.072C121.83 6.072 122.558 6.208 123.198 6.48C123.838 6.736 124.382 7.12 124.83 7.632C125.294 8.128 125.638 8.736 125.862 9.456C126.102 10.176 126.222 10.984 126.222 11.88C126.222 12.152 126.142 12.36 125.982 12.504C125.822 12.632 125.582 12.696 125.262 12.696H117.198V11.208H124.59L124.182 11.544C124.182 10.744 124.062 10.064 123.822 9.504C123.598 8.944 123.254 8.52 122.79 8.232C122.342 7.928 121.782 7.776 121.11 7.776C120.358 7.776 119.718 7.952 119.19 8.304C118.678 8.656 118.286 9.144 118.014 9.768C117.742 10.392 117.606 11.12 117.606 11.952V12.096C117.606 13.504 117.934 14.568 118.59 15.288C119.262 15.992 120.23 16.344 121.494 16.344C121.974 16.344 122.478 16.28 123.006 16.152C123.55 16.024 124.062 15.808 124.542 15.504C124.814 15.344 125.054 15.272 125.262 15.288C125.486 15.304 125.662 15.376 125.79 15.504C125.934 15.632 126.022 15.792 126.054 15.984C126.086 16.176 126.054 16.376 125.958 16.584C125.862 16.776 125.694 16.952 125.454 17.112C124.91 17.48 124.278 17.76 123.558 17.952C122.838 18.128 122.142 18.216 121.47 18.216Z" fill="black"/>
</svg>
