<svg width="52" height="52" viewBox="0 0 52 52" fill="none" xmlns="http://www.w3.org/2000/svg">
<path id="Vector" d="M26 47.1805C28.6537 49.5558 32.1582 51 36 51C44.2843 51 51 44.2843 51 36C51 29.0827 46.3178 23.259 39.9495 21.5255M12.0504 21.5255C5.68232 23.259 1 29.0827 1 36C1 44.2843 7.71572 51 16 51C24.2843 51 31 44.2843 31 36C31 34.0488 30.6275 32.1845 29.9495 30.4745M41 16C41 24.2843 34.2843 31 26 31C17.7157 31 11 24.2843 11 16C11 7.71572 17.7157 1 26 1C34.2843 1 41 7.71572 41 16Z" stroke="white" stroke-width="2" stroke-linecap="round" stroke-linejoin="round"/>
</svg>
