<svg width="44" height="44" viewBox="0 0 44 44" fill="none" xmlns="http://www.w3.org/2000/svg">
<g id="delivery">
<path id="Vector" d="M12.5016 28.7816C12.7639 29.7184 13.7464 30.2683 14.6959 30.0094C15.6455 29.7506 16.2026 28.7812 15.9402 27.8441L12.5016 28.7816ZM2.26108 4.04693C1.31182 3.78706 0.328758 4.3357 0.0653815 5.27234C-0.197995 6.20901 0.358035 7.179 1.30732 7.43888L2.26108 4.04693ZM42.6643 29.8628C43.6178 29.6185 44.19 28.6575 43.9422 27.7167C43.6944 26.7759 42.7207 26.2115 41.7672 26.456L42.6643 29.8628ZM18.9029 34.1652C19.6393 36.7952 18.0229 39.5697 15.1597 40.304L16.057 43.711C20.759 42.5052 23.6322 37.8381 22.3415 33.2279L18.9029 34.1652ZM15.1597 40.304C12.2778 41.043 9.38586 39.3925 8.64332 36.7405L5.20464 37.6778C6.48922 42.2659 11.3735 44.912 16.057 43.711L15.1597 40.304ZM8.64332 36.7405C7.90699 34.1105 9.52328 31.336 12.3866 30.6017L11.4892 27.1948C6.78716 28.4005 3.91385 33.0677 5.20464 37.6778L8.64332 36.7405ZM12.3866 30.6017C15.2684 29.8628 18.1603 31.5132 18.9029 34.1652L22.3415 33.2279C21.057 28.6399 16.1727 25.994 11.4892 27.1948L12.3866 30.6017ZM15.9402 27.8441L10.8215 9.56202L7.38279 10.4994L12.5016 28.7816L15.9402 27.8441ZM6.31304 5.15618L2.26108 4.04693L1.30732 7.43888L5.35928 8.54812L6.31304 5.15618ZM10.8215 9.56202C10.2194 7.41189 8.4937 5.75316 6.31304 5.15618L5.35928 8.54812C6.37147 8.82522 7.12528 9.57969 7.38279 10.4994L10.8215 9.56202ZM21.0708 35.4001L42.6643 29.8628L41.7672 26.456L20.1734 31.9931L21.0708 35.4001Z" fill="white"/>
<path id="Vector_2" d="M17.3979 13.4478C16.2444 9.32801 15.6677 7.26811 16.6467 5.64531C17.6257 4.02249 19.7781 3.47054 24.0832 2.36664L28.6493 1.19577C32.9541 0.0918783 35.1067 -0.460093 36.8022 0.476834C38.498 1.41376 39.0747 3.47368 40.2282 7.59351L41.4519 11.9632C42.6053 16.0831 43.1821 18.1429 42.2029 19.7657C41.224 21.3887 39.0716 21.9406 34.7666 23.0445L30.2005 24.2153C25.8957 25.3192 23.7431 25.8711 22.0473 24.9343C20.3516 23.9973 19.7748 21.9373 18.6213 17.8177L17.3979 13.4478Z" fill="white"/>
</g>
</svg>
