<svg width="70" height="70" viewBox="0 0 70 70" fill="none" xmlns="http://www.w3.org/2000/svg">
<path id="Vector" d="M69.6519 20.2117L60.0868 1.94511C59.5288 0.880764 58.0845 0.00874208 56.8831 0.00874208H34.8686C34.8446 0.00655656 34.8205 0.00218552 34.7964 0C34.7767 0 34.757 0.00655656 34.7373 0.00874208H13.1168C11.9132 0.00874208 10.4667 0.878579 9.89997 1.93856L0.361111 19.8533C-0.205663 20.9154 -0.0918704 22.5808 0.60839 23.5599L33.4353 69.2613C33.7876 69.7509 34.2559 70 34.722 70C35.186 70 35.6499 69.7596 36.0066 69.2766L69.3718 23.9096C70.083 22.9392 70.2099 21.2782 69.6519 20.2139V20.2117ZM64.4306 19.6762H52.7056L57.4017 6.2484L64.4306 19.6762ZM39.3306 4.38197H53.4146L49.0445 16.8744L39.3306 4.38197ZM45.6833 19.6762H25.3298L34.9496 5.87249L45.6833 19.6762ZM21.4521 17.5912L17.0623 4.38197H30.6583L21.4521 17.5912ZM46.5389 24.0473L34.7745 57.6868L23.5966 24.0473H46.5389ZM29.8662 56.7929L6.34615 24.0473H18.9859L29.8662 56.7929ZM51.176 24.0473H63.8397L39.7026 56.8694L51.176 24.0473ZM12.8761 5.6605L17.5328 19.6762H5.41174L12.8761 5.6605Z" fill="white"/>
</svg>
