<svg width="60" height="60" viewBox="0 0 60 60" fill="none" xmlns="http://www.w3.org/2000/svg">
<path d="M13.125 41.2498H46.875V18.6523L32.3738 6.78735C31.7039 6.23964 30.8653 5.94042 30 5.94042C29.1347 5.94042 28.2961 6.23964 27.6263 6.78735L13.125 18.6523V41.2498ZM13.125 44.9998V52.4998H46.875V44.9998H13.125ZM34.7475 3.88485L49.935 16.3123C50.1504 16.488 50.324 16.7093 50.4434 16.9603C50.5627 17.2113 50.6247 17.4857 50.625 17.7636V54.3748C50.625 54.8721 50.4275 55.349 50.0758 55.7007C49.7242 56.0523 49.2473 56.2498 48.75 56.2498H11.25C10.7527 56.2498 10.2758 56.0523 9.92418 55.7007C9.57254 55.349 9.375 54.8721 9.375 54.3748V17.7636C9.37482 17.486 9.43628 17.2118 9.55496 16.9608C9.67363 16.7098 9.84656 16.4884 10.0613 16.3123L25.2487 3.88485C26.5887 2.78847 28.2668 2.18945 29.9981 2.18945C31.7295 2.18945 33.4075 2.78847 34.7475 3.88485Z" fill="white"/>
<path d="M30 26.25C30.9946 26.25 31.9484 25.8549 32.6516 25.1516C33.3549 24.4484 33.75 23.4946 33.75 22.5C33.75 21.5054 33.3549 20.5516 32.6516 19.8484C31.9484 19.1451 30.9946 18.75 30 18.75C29.0054 18.75 28.0516 19.1451 27.3484 19.8484C26.6451 20.5516 26.25 21.5054 26.25 22.5C26.25 23.4946 26.6451 24.4484 27.3484 25.1516C28.0516 25.8549 29.0054 26.25 30 26.25ZM30 30C28.0109 30 26.1032 29.2098 24.6967 27.8033C23.2902 26.3968 22.5 24.4891 22.5 22.5C22.5 20.5109 23.2902 18.6032 24.6967 17.1967C26.1032 15.7902 28.0109 15 30 15C31.9891 15 33.8968 15.7902 35.3033 17.1967C36.7098 18.6032 37.5 20.5109 37.5 22.5C37.5 24.4891 36.7098 26.3968 35.3033 27.8033C33.8968 29.2098 31.9891 30 30 30Z" fill="white"/>
</svg>
