<svg width="35" height="35" viewBox="0 0 35 35" fill="none" xmlns="http://www.w3.org/2000/svg">
<circle cx="17.5" cy="17.5" r="17.5" fill="white"/>
<path d="M8 12.2857L14.0555 17.4761C15.4811 18.698 16.1939 19.309 16.9642 19.5464C17.6451 19.7561 18.3549 19.7561 19.0358 19.5464C19.8061 19.309 20.519 18.698 21.9446 17.4761L28 12.2857M11.5556 28H24.4444C25.689 28 26.3113 28 26.7867 27.6886C27.2048 27.4147 27.5448 26.9776 27.7578 26.44C28 25.8289 28 25.0287 28 23.4286V12.5714C28 10.9713 28 10.1712 27.7578 9.56003C27.5448 9.02241 27.2048 8.58533 26.7867 8.31141C26.3113 8 25.689 8 24.4444 8H11.5556C10.311 8 9.68871 8 9.21336 8.31141C8.79521 8.58533 8.45526 9.02241 8.24221 9.56003C8 10.1712 8 10.9713 8 12.5714V23.4286C8 25.0287 8 25.8289 8.24221 26.44C8.45526 26.9776 8.79521 27.4147 9.21336 27.6886C9.68871 28 10.311 28 11.5556 28Z" stroke="black" stroke-linecap="round" stroke-linejoin="round"/>
</svg>
