<svg width="70" height="70" viewBox="0 0 70 70" fill="none" xmlns="http://www.w3.org/2000/svg">
<path id="Vector" d="M70 9.13046C70 4.09562 65.9044 0 60.8695 0C55.8347 0 51.7391 4.09562 51.7391 9.13046C51.7391 13.5466 54.8905 17.2388 59.0623 18.0798C54.6601 40.755 47.5114 64.5834 43.2886 64.5834C41.231 64.5834 38.2627 56.8558 35.8775 50.6469L35.5432 49.7776C34.5728 47.2557 33.7287 44.5139 32.9113 41.8627C30.6792 34.6151 28.9152 28.8923 25.1168 28.8923C20.9807 28.8923 14.9211 42.7928 11.3528 52.0241C10.64 51.8449 9.89817 51.7391 9.13046 51.7391C4.09562 51.7391 0 55.8347 0 60.8695C0 65.9044 4.09562 70 9.13046 70C14.1653 70 18.2609 65.9044 18.2609 60.8695C18.2609 57.6873 16.6223 54.8835 14.1467 53.2487C18.0355 43.2342 23.2515 32.5668 25.1168 31.9356C26.6682 31.9356 28.6753 38.4491 30.003 42.7587C30.8345 45.4589 31.6949 48.2513 32.7024 50.8712L33.036 51.7376C36.711 61.3064 39.1392 67.6267 43.2884 67.6267C51.861 67.6267 59.6439 31.179 62.1472 18.1606C66.5776 17.5359 70 13.7305 70 9.13046ZM9.1303 66.9567C5.77395 66.9567 3.04333 64.2268 3.04333 60.8697C3.04333 57.5126 5.77395 54.7827 9.1303 54.7827C12.4867 54.7827 15.2173 57.5126 15.2173 60.8697C15.2173 64.2268 12.4867 66.9567 9.1303 66.9567ZM60.8695 15.2174C57.5132 15.2174 54.7826 12.4876 54.7826 9.13046C54.7826 5.77334 57.5132 3.04348 60.8695 3.04348C64.2259 3.04348 66.9565 5.77334 66.9565 9.13046C66.9565 12.4876 64.2259 15.2174 60.8695 15.2174Z" fill="white"/>
</svg>
