<svg width="52" height="42" viewBox="0 0 52 42" fill="none" xmlns="http://www.w3.org/2000/svg">
<path id="Vector" d="M19.8397 6.4376C19.8397 3.4345 22.217 1 25.1497 1C28.0822 1 30.4598 3.4345 30.4598 6.4376C30.4598 7.851 30.0115 9.13845 29.2312 10.1054C27.737 11.9575 25.5038 13.8228 25.5038 16.2254V17.0355M25.5038 17.0355C27.3325 17.0113 29.1685 17.59 30.7112 18.7749L36 22.8365M25.5038 17.0355C23.69 17.0594 21.8835 17.6766 20.3775 18.8834L2.63827 33.1C-0.541951 35.6486 1.21802 40.8758 5.25635 40.8758H46.7438C50.8263 40.8758 52.5585 35.5538 49.2925 33.0456L43.5 28.5969" stroke="white" stroke-width="2" stroke-linecap="round"/>
</svg>
