<svg width="35" height="35" viewBox="0 0 35 35" fill="none" xmlns="http://www.w3.org/2000/svg">
<circle cx="17.5" cy="17.5" r="17.5" fill="white"/>
<path d="M7 16.8889C7 12.6986 7 10.6035 8.36683 9.30174C9.73367 8 11.9336 8 16.3333 8H18.6667C23.0664 8 25.2664 8 26.6331 9.30174C28 10.6035 28 12.6986 28 16.8889V19.1111C28 23.3013 28 25.3966 26.6331 26.6982C25.2664 28 23.0664 28 18.6667 28H16.3333C11.9336 28 9.73367 28 8.36683 26.6982C7 25.3966 7 23.3013 7 19.1111V16.8889Z" stroke="#33363F"/>
<path d="M22 14C22.5523 14 23 13.5523 23 13C23 12.4477 22.5523 12 22 12C21.4477 12 21 12.4477 21 13C21 13.5523 21.4477 14 22 14Z" fill="#33363F"/>
<path d="M17.5 21C19.433 21 21 19.433 21 17.5C21 15.567 19.433 14 17.5 14C15.567 14 14 15.567 14 17.5C14 19.433 15.567 21 17.5 21Z" stroke="#33363F"/>
</svg>
