<svg width="48" height="48" viewBox="0 0 48 48" fill="none" xmlns="http://www.w3.org/2000/svg">
<g id="Lock">
<path id="Vector" d="M21.8 45.9996H15.2C8.97745 45.9996 5.86619 45.9996 3.9331 44.0665C2 42.1333 2 39.0221 2 32.7996C2 26.5771 2 23.4659 3.9331 21.5327C5.86619 19.5996 8.97745 19.5996 15.2 19.5996H32.8C39.0225 19.5996 42.1337 19.5996 44.0669 21.5327C46 23.4659 46 26.5771 46 32.7996C46 39.0221 46 42.1333 44.0669 44.0665C42.1337 45.9996 39.0225 45.9996 32.8 45.9996H30.6" stroke="white" stroke-width="3.75" stroke-linecap="round"/>
<path id="Vector_2" d="M10.8008 19.6V15.2C10.8008 14.4504 10.8633 13.7155 10.9833 13M36.785 11.9C35.3196 6.20675 30.1515 2 24.0008 2C20.0914 2 16.5789 3.6995 14.1619 6.4" stroke="white" stroke-width="3.75" stroke-linecap="round"/>
</g>
</svg>
