<svg width="71" height="61" viewBox="0 0 71 61" fill="none" xmlns="http://www.w3.org/2000/svg">
<path id="Vector" d="M3 14.7857L22.6803 29.0594C27.3134 32.4195 29.6301 34.0998 32.1337 34.7527C34.3466 35.3294 36.6534 35.3294 38.8663 34.7527C41.3699 34.0998 43.6868 32.4195 48.3198 29.0594L68 14.7857M14.5556 58H56.4444C60.4892 58 62.5118 58 64.0567 57.1436C65.4155 56.3905 66.5205 55.1883 67.2128 53.71C68 52.0294 68 49.829 68 45.4286V15.5714C68 11.171 68 8.9708 67.2128 7.29008C66.5205 5.81164 65.4155 4.60965 64.0567 3.85639C62.5118 3 60.4892 3 56.4444 3H14.5556C10.5107 3 8.48831 3 6.94341 3.85639C5.58444 4.60965 4.47958 5.81164 3.78719 7.29008C3 8.9708 3 11.171 3 15.5714V45.4286C3 49.829 3 52.0294 3.78719 53.71C4.47958 55.1883 5.58444 56.3905 6.94341 57.1436C8.48831 58 10.5107 58 14.5556 58Z" stroke="#DBEBF0" stroke-width="5" stroke-linecap="round" stroke-linejoin="round"/>
</svg>
