<svg width="35" height="35" viewBox="0 0 35 35" fill="none" xmlns="http://www.w3.org/2000/svg">
<path d="M9.97181 30.5444C9.38814 30.2068 8.64126 30.4062 8.30363 30.9898C7.96598 31.5736 8.16543 32.3205 8.74912 32.6581L9.97181 30.5444ZM2.34194 26.2508C2.67957 26.8346 3.42645 27.034 4.01014 26.6964C4.59381 26.3587 4.79326 25.6119 4.45563 25.0283L2.34194 26.2508ZM32.5581 17.5C32.5581 25.8163 25.8163 32.5581 17.5 32.5581V35C27.165 35 35 27.165 35 17.5H32.5581ZM2.44186 17.5C2.44186 9.18362 9.18362 2.44186 17.5 2.44186V0C7.83502 0 0 7.83502 0 17.5H2.44186ZM23.1977 21.1628C18.0281 21.1628 13.8372 16.9719 13.8372 11.8023H11.3953C11.3953 18.3206 16.6794 23.6047 23.1977 23.6047V21.1628ZM31.2156 16.6356C29.5745 19.3514 26.5971 21.1628 23.1977 21.1628V23.6047C27.487 23.6047 31.2407 21.3157 33.3057 17.8983L31.2156 16.6356ZM13.8372 11.8023C13.8372 8.40296 15.6486 5.42549 18.3644 3.78435L17.1016 1.69441C13.6843 3.75933 11.3953 7.51294 11.3953 11.8023H13.8372ZM17.5 2.44186C17.3559 2.44186 17.187 2.37687 17.0644 2.24925C16.9605 2.14114 16.9364 2.03886 16.9307 1.99749C16.9239 1.94677 16.9273 1.79976 17.1016 1.69441L18.3644 3.78435C19.1836 3.28943 19.447 2.38322 19.3506 1.67067C19.2507 0.929958 18.6666 0 17.5 0V2.44186ZM33.3057 17.8983C33.2002 18.0727 33.0532 18.0761 33.0026 18.0693C32.9612 18.0636 32.8588 18.0395 32.7507 17.9356C32.6231 17.813 32.5581 17.6441 32.5581 17.5H35C35 16.3334 34.07 15.7493 33.3293 15.6494C32.6167 15.553 31.7105 15.8164 31.2156 16.6356L33.3057 17.8983ZM17.5 32.5581C14.7552 32.5581 12.1854 31.8249 9.97181 30.5444L8.74912 32.6581C11.3244 34.1478 14.3145 35 17.5 35V32.5581ZM4.45563 25.0283C3.17512 22.8146 2.44186 20.2448 2.44186 17.5H0C0 20.6855 0.852226 23.6756 2.34194 26.2508L4.45563 25.0283Z" fill="white"/>
</svg>
