<svg width="65" height="75" viewBox="0 0 65 75" fill="none" xmlns="http://www.w3.org/2000/svg">
<path id="Vector" d="M44.5953 50.6022L46.1135 48.7893L42.5881 44.5314L41.0702 46.3444L44.5953 50.6022ZM51.2118 48.03L57.5797 52.1874L59.9675 46.9124L53.5996 42.755L51.2118 48.03ZM58.8056 60.4502L54.0706 66.1043L57.5957 70.3621L62.3307 64.7081L58.8056 60.4502ZM51.1855 67.9248C46.3528 68.4656 33.8497 67.9836 20.3126 51.8183L16.7874 56.0762C31.5599 73.7166 45.6199 74.578 51.6494 73.9031L51.1855 67.9248ZM20.3126 51.8183C7.40896 36.4096 5.27148 23.4496 5.0054 17.8271L0.0138282 18.1678C0.348671 25.2442 2.99538 39.6067 16.7874 56.0762L20.3126 51.8183ZM24.8967 27.0793L25.8526 25.9377L22.3276 21.6799L21.3716 22.8214L24.8967 27.0793ZM26.6136 11.3863L22.4107 4.64381L18.4084 8.24218L22.6112 14.9847L26.6136 11.3863ZM8.275 3.17627L3.04338 9.42355L6.56859 13.6814L11.8002 7.43407L8.275 3.17627ZM23.1342 24.9504C21.3716 22.8215 21.3692 22.8243 21.3668 22.8272C21.366 22.8281 21.3636 22.8311 21.362 22.833C21.3587 22.837 21.3554 22.841 21.352 22.8451C21.3452 22.8534 21.3382 22.862 21.331 22.871C21.3166 22.8889 21.3013 22.9084 21.2853 22.9294C21.2531 22.9713 21.2178 23.0192 21.18 23.0734C21.1044 23.1817 21.0188 23.315 20.9288 23.4745C20.7484 23.7943 20.5518 24.2171 20.385 24.7489C20.0446 25.8339 19.8621 27.2641 20.0909 29.0352C20.5383 32.4989 22.5245 37.074 27.6125 43.1496L31.1376 38.8918C26.3763 33.206 25.242 29.7459 25.0314 28.1147C24.931 27.3384 25.035 26.9564 25.0637 26.8659C25.081 26.8099 25.0894 26.8042 25.068 26.8424C25.0574 26.8611 25.0397 26.8904 25.012 26.9298C24.9984 26.9496 24.982 26.9719 24.963 26.9968C24.9534 27.0092 24.9434 27.0223 24.932 27.0361C24.9267 27.0429 24.921 27.05 24.915 27.0572C24.912 27.0608 24.909 27.0644 24.906 27.0681C24.9047 27.0699 24.9024 27.0727 24.9014 27.0736C24.899 27.0765 24.8967 27.0793 23.1342 24.9504ZM27.6125 43.1496C32.7021 49.2272 36.5295 51.5926 39.4183 52.1249C40.8946 52.3967 42.0848 52.1798 42.9877 51.7759C43.4304 51.5777 43.783 51.3444 44.0497 51.1298C44.183 51.0225 44.2943 50.9205 44.3846 50.8304C44.43 50.7856 44.47 50.7435 44.505 50.7051C44.5226 50.6859 44.539 50.6679 44.554 50.6507C44.5616 50.6419 44.5686 50.6335 44.5756 50.6255C44.579 50.6214 44.5823 50.6174 44.5856 50.6134C44.5873 50.6114 44.59 50.6086 44.5906 50.6078C44.593 50.605 44.5953 50.6022 42.8327 48.4731C41.0702 46.3444 41.0725 46.3416 41.0749 46.3387C41.0755 46.3379 41.0779 46.3351 41.0795 46.3331C41.0825 46.3295 41.0855 46.3259 41.0885 46.3223C41.0949 46.3155 41.1005 46.3087 41.1062 46.3019C41.1179 46.2887 41.1289 46.2767 41.1392 46.2651C41.1599 46.2427 41.1785 46.2231 41.1952 46.2071C41.2279 46.1742 41.2522 46.1534 41.2672 46.141C41.2982 46.1162 41.2919 46.1274 41.2425 46.1494C41.1609 46.1858 40.8339 46.3111 40.1766 46.1898C38.799 45.9365 35.8976 44.5755 31.1376 38.8918L27.6125 43.1496ZM22.4107 4.64381C19.0133 -0.806491 12.3325 -1.66892 8.275 3.17627L11.8002 7.43407C13.5724 5.31786 16.7197 5.53326 18.4084 8.24218L22.4107 4.64381ZM5.0054 17.8271C4.93984 16.4417 5.46894 14.9945 6.56859 13.6814L3.04338 9.42355C1.25244 11.5622 -0.155526 14.5896 0.0138282 18.1678L5.0054 17.8271ZM54.0706 66.1043C53.1547 67.1982 52.1727 67.8143 51.1855 67.9248L51.6494 73.9031C54.0979 73.6289 56.1041 72.1434 57.5957 70.3621L54.0706 66.1043ZM25.8526 25.9377C29.1341 22.0191 29.378 15.8211 26.6136 11.3863L22.6112 14.9847C23.9561 17.1422 23.7561 19.974 22.3276 21.6799L25.8526 25.9377ZM57.5797 52.1874C60.3055 53.9671 60.7301 58.1517 58.8056 60.4502L62.3307 64.7081C66.798 59.3734 65.4205 50.4721 59.9675 46.9124L57.5797 52.1874ZM46.1135 48.7893C47.3934 47.261 49.4536 46.8823 51.2118 48.03L53.5996 42.755C49.9879 40.3969 45.5056 41.0481 42.5881 44.5314L46.1135 48.7893Z" fill="#DBEBF0"/>
</svg>
