<svg width="52" height="80" viewBox="0 0 52 80" fill="none" xmlns="http://www.w3.org/2000/svg">
<path id="Vector" d="M51.9254 65.5387C51.8713 63.3911 51.8197 61.2378 51.8945 59.0902C51.9693 56.8258 51.9899 54.5614 51.9306 52.2971C51.8764 49.9786 51.8197 47.6601 51.7243 45.3444C51.634 43.1627 51.6598 40.9837 51.6288 38.802C51.6134 37.7396 51.5283 36.68 51.518 35.6204C51.5025 34.5894 51.487 33.5612 51.3967 32.5301C51.2214 30.4394 51.3116 28.3118 51.3116 26.2155C51.3168 23.7916 51.438 21.3649 51.4664 18.941C51.4689 18.7872 51.4122 18.6505 51.3864 18.5052C51.6056 17.6877 51.4715 16.782 50.8809 16.1297C50.4734 15.6797 49.8648 15.4234 49.2639 15.4234C48.7094 15.4234 48.1626 15.6427 47.7964 16.1297C47.2625 16.8276 46.69 17.4941 46.1484 18.189C45.4959 19.0321 44.8872 19.9151 44.2554 20.7753C43.7886 21.4133 43.3218 22.0399 42.824 22.6466C42.5867 22.9371 42.3469 23.2362 42.1019 23.5267C41.9136 23.2362 41.7382 22.9371 41.5912 22.6181C41.4365 22.1567 41.2972 21.6953 41.1322 21.2367C40.8768 20.5218 40.6086 19.9236 40.2037 19.3113C39.8478 18.7786 39.5744 18.1349 39.1025 17.7134C38.8059 17.4485 38.5196 17.2691 38.2127 17.1352C38.2024 16.8105 38.1998 16.4829 38.1921 16.1554C38.1585 15.1385 38.0528 14.1474 37.9264 13.1448C37.8362 12.3672 37.7485 11.5925 37.6376 10.8234C37.5267 10.0914 37.4519 9.33663 37.2198 8.63595C36.6859 7.01529 35.9225 5.4231 34.8883 4.12714C34.259 3.33817 33.4724 2.68307 32.6781 2.12766C32.121 1.74029 31.5768 1.33869 30.9836 1.01683C29.4311 0.168048 27.6696 0 25.9519 0C25.8643 0 25.7766 0 25.6863 0C24.1234 0.0113931 22.6069 0.182289 21.0724 0.578199C19.4244 1.00544 18.0085 2.04221 16.8505 3.38659C16.278 4.05878 15.7157 4.76231 15.2979 5.57406C14.8157 6.51684 14.3695 7.45677 14.0058 8.47075C13.6603 9.43631 13.4281 10.4389 13.2811 11.4671C13.1161 12.6321 12.9536 13.797 12.8685 14.9677C12.7885 16.0785 12.7653 17.1808 12.7447 18.2887C12.1696 18.9581 11.6409 19.6929 11.1302 20.3965C10.6144 21.1057 10.0651 21.7921 9.49252 22.4472C9.48479 22.4301 9.47189 22.4159 9.459 22.3988C9.01282 21.8605 8.52538 21.3848 8.03279 20.9006C6.75101 19.6417 5.54144 18.3001 4.32413 16.9671C3.504 16.0699 2.14742 16.0642 1.32987 16.9671C0.930117 17.4086 0.726373 18.0011 0.718636 18.5992C0.605158 18.8812 0.540683 19.1888 0.540683 19.5163C0.545841 20.781 0.571631 22.0456 0.576789 23.3131C0.576789 24.4296 0.530367 25.5376 0.507155 26.6484C0.455574 28.8416 0.370466 31.0262 0.347254 33.2194C0.300831 37.4376 0.512313 41.6474 0.512313 45.8657C0.512313 48.0731 0.538103 50.289 0.527787 52.5021C0.517471 54.6298 0.545841 56.7603 0.491681 58.8851C0.437521 61.0327 0.354992 63.1746 0.336939 65.3222C0.316306 67.4812 0.300832 69.6402 0.241514 71.7963C0.202828 73.2034 0.179617 74.6019 0.153827 76.0061C0.0274539 76.402 -0.00865265 76.8378 0.00166351 77.2678C0.035191 78.6236 0.994593 79.7515 2.24027 79.7515C2.71481 79.7515 3.13004 79.5493 3.4911 79.2673C4.55367 79.3414 5.61881 79.4097 6.68395 79.4069C7.76457 79.4012 8.84003 79.33 9.92064 79.2787C11.9968 79.1904 14.0652 79.2388 16.1413 79.2616C20.358 79.3015 24.5722 79.2104 28.794 79.2018C32.1545 79.1904 35.5124 79.1961 38.8729 79.1192C40.3997 79.085 41.9291 79.0081 43.461 78.9967C45.1194 78.991 46.7725 79.0423 48.4257 79.0736C48.7764 79.0793 49.0962 78.9654 49.3928 78.8002C50.2542 78.9455 51.2136 78.5325 51.6288 77.6637C52.0853 76.7096 51.9254 75.5219 51.9254 74.4794C51.9306 73.6363 51.9564 72.7989 51.977 71.953C52.0312 69.8168 51.9796 67.6749 51.9254 65.5387ZM17.1574 14.2527C17.3534 12.6776 17.5649 11.1139 18.0833 9.6243C18.3747 8.92363 18.7023 8.2315 19.1046 7.59918C19.5843 6.95547 20.1104 6.37158 20.6907 5.8361C20.7964 5.7592 20.9048 5.69084 21.0182 5.63103C21.6991 5.3519 22.3929 5.17815 23.1073 5.05283C23.9119 4.95884 24.7269 4.95314 25.5316 4.97023C26.313 4.98447 27.0867 5.00726 27.8579 5.09271C28.1467 5.15252 28.4227 5.22657 28.6986 5.33196C29.0597 5.52564 29.4079 5.74496 29.7483 5.98421C30.1558 6.27474 30.5762 6.53963 30.9733 6.84439C31.3112 7.1634 31.6233 7.51373 31.9147 7.88686C32.3428 8.56474 32.7142 9.31384 33.0237 10.0715C33.2893 10.8804 33.4054 11.752 33.5575 12.5922C33.6916 13.3755 33.8103 14.173 33.9134 14.962C34.0604 16.3804 34.045 17.8159 34.1172 19.2401C33.4183 20.0888 32.7503 20.9718 32.0823 21.8462C31.8786 22.114 31.6748 22.3874 31.4762 22.6637C31.11 22.2222 30.7103 21.8149 30.3673 21.3535C30.1532 21.0487 29.9366 20.7468 29.7173 20.442C29.4414 20.0148 29.1912 19.5676 28.9385 19.1233C28.8121 18.9011 28.7115 18.6619 28.5929 18.4397C28.3866 18.0466 28.1261 17.6963 27.8682 17.346C27.391 16.6909 26.5709 16.275 25.8127 16.3206C25.008 16.3662 24.3143 16.7307 23.7778 17.3915C23.4245 17.8245 23.1253 18.3115 22.8133 18.7815C22.3697 19.3825 21.8951 19.9607 21.4257 20.5389C21.0389 21.0145 20.6675 21.513 20.2806 21.9972C20.2316 21.9317 20.1852 21.8633 20.1362 21.795C19.4321 20.7895 18.7152 19.7926 17.9543 18.8356C17.6474 18.4568 17.387 18.0466 17.0852 17.6707C17.062 17.6422 17.0336 17.6279 17.0104 17.6023C17.0027 17.2548 16.9846 16.9073 16.9924 16.557C17.0053 15.7823 17.0723 15.0189 17.1574 14.2527ZM42.4862 74.3455C40.5416 74.4167 38.597 74.5563 36.6472 74.6389C34.5969 74.7215 32.5517 74.7329 30.5014 74.7557C28.451 74.7728 26.4059 74.8724 24.3555 74.8497C20.8119 74.8155 17.2761 74.8326 13.7376 74.7728C12.069 74.7386 10.4003 74.8667 8.73687 74.9493C7.26939 75.0234 5.79934 74.9066 4.33187 74.7813C4.31897 73.3116 4.30608 71.8419 4.35508 70.3722C4.42987 68.2018 4.40924 66.0314 4.44535 63.8667C4.48145 61.7305 4.59235 59.6 4.59493 57.4638C4.59493 55.3561 4.61556 53.2398 4.62072 51.1264C4.62588 48.9133 4.61556 46.6974 4.6362 44.4843C4.66199 42.3595 4.6723 40.2403 4.6104 38.1127C4.55109 36.0221 4.58461 33.9172 4.55882 31.8209C4.53303 29.6021 4.6104 27.3861 4.64393 25.1673C4.65167 24.7344 4.65683 24.3014 4.66456 23.8656C4.82704 24.0565 4.9921 24.2416 5.15974 24.4268C5.63686 24.948 6.09335 25.4806 6.53179 26.0417C6.9728 26.6085 7.40608 27.1013 7.98379 27.5171C8.05858 27.5741 8.13853 27.6168 8.22106 27.6567C8.40675 27.7906 8.60791 27.8789 8.82455 27.9216C9.32746 28.0384 9.58279 27.9928 10.0805 27.9102C10.6092 27.8219 11.1096 27.3263 11.4887 26.9389C12.087 26.318 12.608 25.5775 13.1625 24.9081C13.7969 24.1334 14.3514 23.2618 14.9627 22.4558C15.2721 22.8944 15.5868 23.333 15.8963 23.7688C16.4611 24.6261 16.9743 25.5262 17.5365 26.3835C17.8796 26.8991 18.2664 27.4602 18.808 27.7279C19.1742 27.9643 19.5662 28.0839 19.9892 28.0839C20.2316 28.1238 20.4715 28.0953 20.7088 28.007C21.3123 27.8561 21.7378 27.4516 22.1969 27.0301C22.7514 26.5231 23.2001 25.8253 23.6334 25.1872C24.2833 24.3014 25.0235 23.5011 25.6682 22.6124C25.8539 22.92 26.0448 23.2191 26.246 23.5182C26.2305 23.4954 26.215 23.4726 26.1995 23.4526C26.2408 23.5153 26.2821 23.5751 26.3233 23.6349C26.3156 23.6235 26.3078 23.6093 26.2975 23.5979C26.3801 23.7175 26.4626 23.8372 26.5503 23.9568C26.4729 23.8486 26.3981 23.7432 26.3233 23.6349C26.7024 24.2017 27.0455 24.7913 27.4736 25.3211C27.8063 25.7398 28.1338 26.1614 28.451 26.5914C28.6264 26.8734 28.7683 27.1725 28.9514 27.4459C29.2634 27.9187 29.609 28.4514 30.1171 28.6906C30.4833 28.9299 30.8805 29.0466 31.3086 29.0466C31.5459 29.0751 31.7754 29.0466 32.0075 28.964C32.2783 28.8928 32.5491 28.7647 32.7812 28.5938C33.6091 27.9814 34.0682 27.0529 34.6252 26.1841C35.2107 25.3638 35.809 24.5549 36.4151 23.7517C36.5647 23.5495 36.7194 23.3558 36.8768 23.1621C37.114 23.9938 37.3281 24.8284 37.7253 25.5945C37.9213 25.9791 38.1714 26.3265 38.4087 26.6826C38.7362 27.1696 39.0664 27.6254 39.4584 28.0412C39.5744 28.1637 39.6853 28.2976 39.8091 28.4086C40.196 28.7419 40.5622 29.0951 41.06 29.2232C41.6067 29.3571 42.1199 29.3856 42.6641 29.1891C43.4971 28.8957 44.1806 28.2634 44.7531 27.5513C45.6042 26.5031 46.4166 25.4265 47.2058 24.3299C47.2058 25.022 47.211 25.717 47.1955 26.4092C47.1697 27.4972 47.1852 28.5909 47.18 29.6761C47.1748 30.7129 47.18 31.7468 47.2445 32.7836C47.3812 34.8998 47.4508 37.0246 47.5308 39.1438C47.6107 41.2857 47.572 43.4276 47.652 45.5695C47.7371 47.905 47.7964 50.2435 47.8377 52.579C47.8789 54.8662 47.8273 57.1477 47.7912 59.432C47.7603 61.5739 47.7371 63.7101 47.7268 65.8463C47.7216 67.954 47.7577 70.0703 47.652 72.178C47.621 72.8559 47.5927 73.5366 47.5772 74.2173C45.8905 74.243 44.1857 74.28 42.4862 74.3455ZM45.1219 37.5117C45.011 39.1609 44.9053 40.8071 44.8666 42.4677C44.8176 44.4814 44.7351 46.498 44.7196 48.5117C44.7041 50.571 44.6938 52.6303 44.6887 54.6868C44.6835 56.7233 44.6732 58.7541 44.6732 60.7906C44.6732 61.8388 44.6629 62.8869 44.6525 63.9351C44.6525 64.6899 44.6422 65.4561 44.6887 66.2052C44.962 67.353 44.2683 68.5749 43.2521 68.8854C42.7234 69.0449 42.1509 68.9623 41.6841 68.6632C41.1863 68.3414 40.9594 67.8856 40.7505 67.3188C40.6035 66.9258 40.6138 66.4159 40.6138 65.983C40.6138 65.6554 40.6241 65.3279 40.6292 65.0003C40.6396 64.2911 40.6241 63.5791 40.6241 62.8698C40.6292 58.774 40.6035 54.6754 40.5777 50.5796C40.5519 46.2246 40.5132 41.861 40.7479 37.5117C40.8175 36.1958 41.6867 35.0964 42.9323 35.0964C44.062 35.0964 45.207 36.1958 45.1219 37.5117Z" fill="white"/>
</svg>
