<svg width="104" height="110" viewBox="0 0 104 110" fill="none" xmlns="http://www.w3.org/2000/svg">
<g id="Smile">
<path id="Vector" d="M52 108.46C79.6142 108.46 102 84.6282 102 55.23C102 25.8319 79.6142 2 52 2C24.3858 2 2 25.8319 2 55.23C2 84.6282 24.3858 108.46 52 108.46Z" stroke="white" stroke-width="3"/>
<path id="Vector_2" d="M37 76.522C41.2519 79.8771 46.423 81.845 52 81.845C57.577 81.845 62.748 79.8771 67 76.522" stroke="white" stroke-width="3.75" stroke-linecap="round"/>
<path id="Vector_3" d="M72 47.2457C72 51.6553 69.7615 55.2302 67 55.2302C64.2385 55.2302 62 51.6553 62 47.2457C62 42.836 64.2385 39.2612 67 39.2612C69.7615 39.2612 72 42.836 72 47.2457Z" fill="white"/>
<path id="Vector_4" d="M37 55.2302C39.7614 55.2302 42 51.6555 42 47.2457C42 42.836 39.7614 39.2612 37 39.2612C34.2386 39.2612 32 42.836 32 47.2457C32 51.6555 34.2386 55.2302 37 55.2302Z" fill="white"/>
</g>
</svg>
