<svg width="52" height="52" viewBox="0 0 52 52" fill="none" xmlns="http://www.w3.org/2000/svg">
<path id="Vector" d="M23.9342 3.70123C24.5887 2.16146 24.9161 1.39157 25.3718 1.15449C25.7676 0.948504 26.2324 0.948504 26.6282 1.15449C27.084 1.39157 27.4114 2.16146 28.0659 3.70123L33.2793 15.9658C33.473 16.4209 33.5697 16.6485 33.7195 16.8228C33.8518 16.977 34.0138 17.1004 34.1945 17.1848C34.3989 17.2803 34.6352 17.3064 35.108 17.3587L47.8427 18.7682C49.4415 18.9451 50.2407 19.0336 50.5967 19.4148C50.9057 19.7459 51.0493 20.2096 50.9849 20.668C50.9108 21.1957 50.3137 21.7599 49.1194 22.8885L39.6067 31.8779C39.2538 32.2115 39.0771 32.3784 38.9654 32.5814C38.8665 32.7614 38.8046 32.9609 38.7839 33.1673C38.7605 33.4006 38.8097 33.6443 38.9083 34.1319L41.5654 47.2674C41.899 48.9166 42.0658 49.7411 41.83 50.2136C41.625 50.6245 41.249 50.9109 40.8133 50.9883C40.3118 51.0772 39.6154 50.6563 38.2227 49.814L27.1301 43.105C26.7184 42.856 26.5126 42.7318 26.2938 42.6829C26.1001 42.6399 25.8999 42.6399 25.7063 42.6829C25.4874 42.7318 25.2816 42.856 24.87 43.105L13.7774 49.814C12.3847 50.6563 11.6884 51.0772 11.1868 50.9883C10.7511 50.9109 10.375 50.6245 10.1702 50.2136C9.93444 49.7411 10.1012 48.9166 10.4348 47.2674L13.0917 34.1319C13.1903 33.6443 13.2396 33.4006 13.2162 33.1673C13.1955 32.9609 13.1337 32.7614 13.0347 32.5814C12.9229 32.3784 12.7464 32.2115 12.3933 31.8779L2.88077 22.8885C1.68652 21.7599 1.08938 21.1957 1.01514 20.668C0.950676 20.2096 1.09433 19.7459 1.40346 19.4148C1.75935 19.0336 2.55875 18.9451 4.15755 18.7682L16.8922 17.3587C17.3649 17.3064 17.6012 17.2803 17.8055 17.1848C17.9863 17.1004 18.1482 16.977 18.2807 16.8228C18.4304 16.6485 18.5272 16.4209 18.7207 15.9658L23.9342 3.70123Z" stroke="white" stroke-width="2" stroke-linecap="round" stroke-linejoin="round"/>
</svg>
