<svg width="61" height="78" viewBox="0 0 61 78" fill="none" xmlns="http://www.w3.org/2000/svg">
<path d="M60.3868 72.9074L53.2019 63.7824C55.1953 60.4581 56.3952 56.3227 56.3952 51.837C56.3888 46.5931 54.7451 41.5664 51.8245 37.8595C48.9039 34.1526 44.9449 32.0681 40.8159 32.0633C36.6885 32.0714 32.732 34.1573 29.8136 37.8638C26.8951 41.5704 25.2526 46.5952 25.2462 51.837C25.2501 57.0821 26.892 62.111 29.8119 65.8204C32.7317 69.5297 36.6909 71.6166 40.8207 71.6231C44.3575 71.6231 47.6137 70.0992 50.2264 67.5676L57.4113 76.6864C57.6052 76.9355 57.8361 77.1333 58.0907 77.2683C58.3452 77.4033 58.6183 77.4728 58.8942 77.4728C59.1701 77.4728 59.4432 77.4033 59.6977 77.2683C59.9523 77.1333 60.1832 76.9355 60.3771 76.6864C60.5737 76.4394 60.7298 76.1456 60.8367 75.8218C60.9436 75.498 60.9991 75.1505 61 74.7994C61.0009 74.4483 60.9472 74.1004 60.842 73.7757C60.7367 73.4511 60.5821 73.156 60.3868 72.9074ZM29.4507 51.837C29.4546 48.0088 30.6537 44.3387 32.7852 41.6317C34.9166 38.9247 37.8064 37.4018 40.8207 37.3969C43.8362 37.3969 46.7282 38.9183 48.8605 41.6263C50.9928 44.3344 52.1907 48.0073 52.1907 51.837C52.1907 55.6668 50.9928 59.3397 48.8605 62.0478C46.7282 64.7558 43.8362 66.2772 40.8207 66.2772C37.8068 66.2707 34.9178 64.7472 32.7866 62.0406C30.6554 59.334 29.4558 55.6648 29.4507 51.837ZM47.3282 20.038C47.3282 21.5127 46.3848 22.7048 45.2236 22.7048H24.1915C23.6346 22.7048 23.1005 22.4239 22.7067 21.9237C22.3129 21.4236 22.0917 20.7453 22.0917 20.038C22.0917 19.3307 22.3129 18.6524 22.7067 18.1523C23.1005 17.6522 23.6346 17.3712 24.1915 17.3712H45.2236C46.3848 17.3712 47.3282 18.5633 47.3282 20.038ZM7.01553 72.127H21.0369C21.5705 72.173 22.0703 72.4746 22.4354 72.9708C22.8005 73.467 23.0036 74.1208 23.0036 74.7999C23.0036 75.4791 22.8005 76.1329 22.4354 76.6291C22.0703 77.1254 21.5705 77.4269 21.0369 77.4729H7.01553C3.15457 77.4729 0 73.4788 0 68.563V21.0396C0 19.8414 0.338681 18.68 0.943468 17.7583L11.5587 1.72053C11.9147 1.18248 12.3589 0.749725 12.8604 0.452533C13.3618 0.155341 13.9083 0.000894976 14.4617 0H48.7265C52.5923 0 55.742 3.99408 55.742 8.90988V28.0446C55.742 28.7535 55.5203 29.4334 55.1256 29.9347C54.7309 30.436 54.1956 30.7176 53.6374 30.7176C53.0792 30.7176 52.5439 30.436 52.1492 29.9347C51.7545 29.4334 51.5327 28.7535 51.5327 28.0446V8.90373C51.5315 7.9617 51.2366 7.05863 50.7125 6.39194C50.1885 5.72525 49.4779 5.34917 48.7362 5.34593H17.8824V20.7938C17.8734 21.92 17.5136 22.9958 16.8815 23.7858C16.2495 24.5758 15.3968 25.0157 14.5101 25.0091H4.21416V68.5692C4.21416 70.5294 5.47212 72.127 7.01553 72.127ZM13.6779 6.82066L5.17698 19.6632H13.6779V6.82066ZM18.9371 46.8229C19.4953 46.8229 20.0306 46.5413 20.4253 46.04C20.82 45.5388 21.0418 44.8589 21.0418 44.15C21.0418 43.4411 20.82 42.7612 20.4253 42.2599C20.0306 41.7586 19.4953 41.477 18.9371 41.477H11.5732C11.015 41.477 10.4797 41.7586 10.085 42.2599C9.69029 42.7612 9.46855 43.4411 9.46855 44.15C9.46855 44.8589 9.69029 45.5388 10.085 46.04C10.4797 46.5413 11.015 46.8229 11.5732 46.8229H18.9371ZM18.9371 59.094C19.4947 59.094 20.0294 58.8127 20.4236 58.312C20.8179 57.8113 21.0393 57.1322 21.0393 56.4241C21.0393 55.716 20.8179 55.0369 20.4236 54.5362C20.0294 54.0355 19.4947 53.7542 18.9371 53.7542H11.5732C11.0157 53.7542 10.4809 54.0355 10.0867 54.5362C9.69246 55.0369 9.47097 55.716 9.47097 56.4241C9.47097 57.1322 9.69246 57.8113 10.0867 58.312C10.4809 58.8127 11.0157 59.094 11.5732 59.094H18.9371ZM21.0369 29.421H11.5732C11.0157 29.421 10.4809 29.7023 10.0867 30.203C9.69246 30.7037 9.47097 31.3828 9.47097 32.0909C9.47097 32.799 9.69246 33.4781 10.0867 33.9788C10.4809 34.4795 11.0157 34.7608 11.5732 34.7608H21.0369C21.5945 34.7608 22.1292 34.4795 22.5234 33.9788C22.9177 33.4781 23.1392 32.799 23.1392 32.0909C23.1392 31.3828 22.9177 30.7037 22.5234 30.203C22.1292 29.7023 21.5945 29.421 21.0369 29.421Z" fill="white"/>
</svg>
