<svg width="104" height="111" viewBox="0 0 104 111" fill="none" xmlns="http://www.w3.org/2000/svg">
<g id="79-users">
<path id="Vector" d="M52.0007 64.102C61.2054 64.102 68.6673 54.1721 68.6673 41.9228C68.6673 29.6736 61.2054 19.7437 52.0007 19.7437C42.7959 19.7437 35.334 29.6736 35.334 41.9228C35.334 54.1721 42.7959 64.102 52.0007 64.102Z" stroke="white" stroke-width="3.75" stroke-linecap="round" stroke-linejoin="round"/>
<path id="Vector_2" d="M75.3327 108.46C75.3327 100.225 72.8744 92.3269 68.4985 86.5038C64.1227 80.6806 58.1877 77.4092 51.9994 77.4092C45.811 77.4092 39.876 80.6806 35.5002 86.5038C31.1243 92.3269 28.666 100.225 28.666 108.46H75.3327Z" stroke="white" stroke-width="3.75" stroke-linecap="round" stroke-linejoin="round"/>
<path id="Vector_3" d="M78.6673 46.3584C81.5083 46.3584 84.3021 45.392 86.7834 43.551C89.2647 41.7099 91.3513 39.0554 92.8448 35.8395C94.3384 32.6235 95.1894 28.9529 95.3171 25.1761C95.4448 21.3993 94.8449 17.6418 93.5744 14.2604C92.3039 10.8789 90.405 7.98574 88.0579 5.85563C85.7108 3.72551 82.9935 2.42914 80.1641 2.08963C77.3346 1.75011 74.4869 2.37871 71.8913 3.91574C69.2958 5.45277 67.0386 7.84721 65.334 10.8717" stroke="white" stroke-width="3.75" stroke-linecap="round" stroke-linejoin="round"/>
<path id="Vector_4" d="M81.9993 90.7169H101.999C101.999 82.4817 99.541 74.5838 95.1652 68.7606C90.7893 62.9374 84.8544 59.666 78.666 59.666" stroke="white" stroke-width="3.75" stroke-linecap="round" stroke-linejoin="round"/>
<path id="Vector_5" d="M38.666 10.8717C36.9615 7.84721 34.7042 5.45277 32.1087 3.91574C29.5131 2.37871 26.6654 1.75011 23.8359 2.08963C21.0065 2.42914 18.2892 3.72551 15.9421 5.85563C13.595 7.98574 11.6961 10.8789 10.4256 14.2604C9.15506 17.6418 8.55517 21.3993 8.68286 25.1761C8.81056 28.9529 9.6616 32.6235 11.1552 35.8395C12.6487 39.0554 14.7353 41.7099 17.2166 43.551C19.698 45.392 22.4917 46.3584 25.3327 46.3584" stroke="white" stroke-width="3.75" stroke-linecap="round" stroke-linejoin="round"/>
<path id="Vector_6" d="M25.3333 59.666C19.1449 59.666 13.21 62.9374 8.83418 68.7606C4.45833 74.5838 2 82.4817 2 90.7169H22" stroke="white" stroke-width="3.75" stroke-linecap="round" stroke-linejoin="round"/>
</g>
</svg>
