<svg width="35" height="35" viewBox="0 0 35 35" fill="none" xmlns="http://www.w3.org/2000/svg">
<circle cx="17.5" cy="17.5" r="17.5" fill="white"/>
<path d="M26.5998 9.3095C26.4413 9.15767 26.2483 9.05685 26.0418 9.01796C25.8352 8.97907 25.623 9.00361 25.4282 9.08891L7.72995 16.7961C7.49859 16.8968 7.30288 17.0779 7.17211 17.3122C7.04134 17.5466 6.98254 17.8215 7.0045 18.096C7.02647 18.3704 7.12802 18.6296 7.29396 18.8348C7.45991 19.0399 7.68132 19.18 7.92506 19.234L12.7289 20.2991V26.8718C12.7265 27.1247 12.793 27.3725 12.9198 27.5828C13.0465 27.793 13.2276 27.956 13.4393 28.0503C13.5811 28.1161 13.7332 28.1502 13.8869 28.1506C14.0372 28.1501 14.1858 28.1165 14.3242 28.0518C14.4627 27.9871 14.5881 27.8926 14.6933 27.7737L17.4356 24.734L21.4818 28.6809C21.6903 28.8862 21.9593 28.9997 22.2382 29C22.3594 28.9998 22.4799 28.9787 22.5952 28.9372C22.7854 28.8703 22.9564 28.7494 23.0912 28.5864C23.2261 28.4234 23.32 28.224 23.3636 28.0082L26.9706 10.5611C27.0177 10.3348 27.0081 10.0986 26.9427 9.87797C26.8773 9.65735 26.7588 9.46076 26.5998 9.3095ZM7.76867 18.0208C7.75913 17.929 7.77781 17.8362 7.8217 17.7576C7.86558 17.679 7.93211 17.619 8.01052 17.5875L24.2337 10.5227L13.0235 19.4972L8.07551 18.4002C7.99331 18.3845 7.91832 18.3384 7.86264 18.2696C7.80696 18.2007 7.77385 18.1131 7.76867 18.0208ZM14.1508 27.1725C14.0972 27.2319 14.0289 27.2724 13.9544 27.2888C13.88 27.3052 13.8029 27.2968 13.7328 27.2646C13.6627 27.2325 13.6028 27.178 13.5607 27.1081C13.5185 27.0381 13.4961 26.9559 13.4961 26.8718V20.8911L16.8585 24.1711L14.1508 27.1725ZM26.2228 10.3711L22.6158 27.8183C22.601 27.89 22.5696 27.9563 22.5247 28.0106C22.4798 28.0649 22.4229 28.1053 22.3597 28.1279C22.2964 28.1505 22.229 28.1545 22.1639 28.1396C22.0989 28.1246 22.0384 28.0911 21.9885 28.0425L13.7267 19.9833L26.1608 10.0289C26.1936 10.0772 26.2161 10.133 26.2268 10.1922C26.2376 10.2515 26.2362 10.3126 26.2228 10.3711Z" fill="black"/>
</svg>
