<svg width="100" height="107" viewBox="0 0 100 107" fill="none" xmlns="http://www.w3.org/2000/svg">
<g id="Group">
<path id="Vector" d="M93.75 0H69.5328C66.4078 0 65.7906 2.3022 65.275 3.3668C62.425 9.26535 56.6625 13.3075 50 13.3075C43.3266 13.3075 37.55 9.25205 34.7078 3.33353C34.2 2.27558 33.5312 0 30.4703 0H6.25C2.79531 0 0 2.97423 0 6.65375V29.9419C0 33.6198 2.79531 36.5956 6.25 36.5956H18.75V99.8063C18.75 103.484 21.5453 106.46 25 106.46H75C78.4547 106.46 81.25 103.484 81.25 99.8063V36.5956H93.75C97.2047 36.5956 100 33.6198 100 29.9419V6.65375C100 2.97423 97.2047 0 93.75 0ZM6.25 33.2688C4.52656 33.2688 3.125 31.7767 3.125 29.9419V6.65375C3.125 4.81732 4.52656 3.32688 6.25 3.32688H9.375V33.2688H6.25ZM78.125 99.8063C78.125 101.641 76.7234 103.133 75 103.133H25C23.2766 103.133 21.875 101.641 21.875 99.8063V96.4794H78.125V99.8063ZM81.25 33.2688C79.525 33.2688 78.125 34.7575 78.125 36.5956V93.1526H21.875V36.5956C21.875 34.7575 20.475 33.2688 18.75 33.2688H12.5V3.32688H29.7094C31.25 3.32688 31.7297 4.42974 31.9906 4.9637C35.3719 11.8936 42.1578 16.6344 50 16.6344C57.8438 16.6344 64.6328 11.8903 68.0109 4.96037C68.2703 4.42807 68.75 3.32688 70.2906 3.32688H87.5V33.2688H81.25ZM96.875 29.9419C96.875 31.7767 95.4734 33.2688 93.75 33.2688H90.625V3.32688H93.75C95.4734 3.32688 96.875 4.81732 96.875 6.65375V29.9419Z" fill="white"/>
<path id="Vector_2" d="M56.25 33.269C54.525 33.269 52.9625 34.0126 51.8313 35.2169L50 37.1548L48.1687 35.2169C47.0375 34.0126 45.475 33.269 43.75 33.269C40.2984 33.269 37.5 36.2466 37.5 39.9228C37.5 41.7592 38.6141 43.4742 39.7469 44.6769L48.8953 54.418C49.5062 55.0684 50.4938 55.0684 51.1047 54.418L60.2297 44.7035C61.3609 43.4992 62.5 41.7592 62.5 39.9228C62.5 36.2466 59.7016 33.269 56.25 33.269ZM58.0562 42.3132L50 50.8898L41.9437 42.3132C41.3766 41.711 40.625 40.841 40.625 39.9228C40.625 38.0847 42.025 36.5959 43.75 36.5959C44.6141 36.5959 45.3953 36.9669 45.9594 37.5707L48.8953 40.6813C49.5062 41.3317 50.4938 41.3317 51.1047 40.6813L54.0406 37.5707C54.6047 36.9669 55.3859 36.5959 56.25 36.5959C57.975 36.5959 59.375 38.0847 59.375 39.9228C59.375 40.841 58.6234 41.711 58.0562 42.3132Z" fill="white"/>
</g>
</svg>
