<svg width="44" height="63" viewBox="0 0 44 63" fill="none" xmlns="http://www.w3.org/2000/svg">
<g id="User icon">
<path id="Vector" d="M22 25.5731C27.5228 25.5731 32 20.2961 32 13.7865C32 7.27702 27.5228 2 22 2C16.4772 2 12 7.27702 12 13.7865C12 20.2961 16.4772 25.5731 22 25.5731Z" stroke="#85BAFA" stroke-width="3.75"/>
<path id="Vector_2" d="M41.9937 49.1463C42 48.6624 42 48.1709 42 47.6729C42 40.3497 33.0458 34.4131 22 34.4131C10.9543 34.4131 2 40.3497 2 47.6729C2 54.9962 2 60.9328 22 60.9328C27.5775 60.9328 31.5995 60.4711 34.5 59.6463" stroke="#85BAFA" stroke-width="3.75" stroke-linecap="round"/>
</g>
</svg>
