<svg width="29" height="39" viewBox="0 0 29 39" fill="none" xmlns="http://www.w3.org/2000/svg">
<g id="User icon">
<path id="Vector" d="M14.5 16C17.9518 16 20.75 12.866 20.75 9C20.75 5.13401 17.9518 2 14.5 2C11.0482 2 8.25 5.13401 8.25 9C8.25 12.866 11.0482 16 14.5 16Z" stroke="white" stroke-width="3"/>
<path id="Vector_2" d="M26.9961 30C27 29.7126 27 29.4207 27 29.125C27 24.7757 21.4036 21.25 14.5 21.25C7.59644 21.25 2 24.7757 2 29.125C2 33.4743 2 37 14.5 37C17.9859 37 20.4997 36.7258 22.3125 36.2359" stroke="white" stroke-width="3" stroke-linecap="round"/>
</g>
</svg>
