<svg width="48" height="52" viewBox="0 0 48 52" fill="none" xmlns="http://www.w3.org/2000/svg">
<g id="ic-shopping-wallet">
<path id="Vector" d="M41.6 10.4893H6.4C3.96995 10.4893 2 12.6815 2 15.3857V44.7645C2 47.4687 3.96995 49.661 6.4 49.661H41.6C44.0301 49.661 46 47.4687 46 44.7645V15.3857C46 12.6815 44.0301 10.4893 41.6 10.4893Z" stroke="white" stroke-width="3.75" stroke-linecap="round" stroke-linejoin="round"/>
<path id="Vector_2" d="M37.1995 10.4894V7.20881C37.202 6.44934 37.0456 5.69965 36.7428 5.01901C36.44 4.33838 35.9991 3.74545 35.455 3.28711C34.9108 2.82877 34.2783 2.51759 33.6074 2.37815C32.9365 2.23872 32.2457 2.27486 31.5895 2.48372L3.93555 11.3218" stroke="white" stroke-width="3.75" stroke-linecap="round" stroke-linejoin="round"/>
<path id="Vector_3" d="M46.0008 24.2974H37.5968C36.3248 24.2974 35.1049 24.8597 34.2055 25.8606C33.3061 26.8615 32.8008 28.219 32.8008 29.6345C32.8066 31.048 33.3137 32.4018 34.2119 33.4013C35.1101 34.4008 36.3266 34.9652 37.5968 34.9717H46.0008" stroke="white" stroke-width="3.75" stroke-linecap="round" stroke-linejoin="round"/>
</g>
</svg>
